<svg xmlns="http://www.w3.org/2000/svg" xmlns:xlink="http://www.w3.org/1999/xlink" width="36" height="36" viewBox="0 0 36 36">
  <defs>
    <filter id="Rectangle_1144" x="0" y="0" width="36" height="36" filterUnits="userSpaceOnUse">
      <feOffset dy="3" input="SourceAlpha"/>
      <feGaussianBlur stdDeviation="3" result="blur"/>
      <feFlood flood-opacity="0.161"/>
      <feComposite operator="in" in2="blur"/>
      <feComposite in="SourceGraphic"/>
    </filter>
  </defs>
  <g id="Group_3590" data-name="Group 3590" transform="translate(9 6)">
    <g transform="matrix(1, 0, 0, 1, -9, -6)" filter="url(#Rectangle_1144)">
      <rect id="Rectangle_1144-2" data-name="Rectangle 1144" width="18" height="18" rx="9" transform="translate(9 6)" fill="#fff"/>
    </g>
    <path id="Path_305" data-name="Path 305" d="M4.475,9.644.179,5.45a.581.581,0,0,1,0-.839l.868-.839a.63.63,0,0,1,.868,0L4.909,6.71,11.585.174a.63.63,0,0,1,.868,0l.868.839a.579.579,0,0,1,0,.838L5.343,9.647A.63.63,0,0,1,4.475,9.644Z" transform="translate(2.813 4.499)" fill="#1789ea"/>
  </g>
</svg>
