<svg xmlns="http://www.w3.org/2000/svg" width="21.333" height="21.333" viewBox="0 0 21.333 21.333">
  <g id="Group_5210" data-name="Group 5210" transform="translate(153 -217)">
    <path id="Path_1117" data-name="Path 1117" d="M10.667,0A10.667,10.667,0,1,1,0,10.667,10.667,10.667,0,0,1,10.667,0Z" transform="translate(-153 217)" fill="#fff"/>
    <g id="Group_5204" data-name="Group 5204" transform="translate(-1104.914 -395.716)">
      <path id="Path_1118" data-name="Path 1118" d="M961.3,626.88a6.548,6.548,0,0,1,.37-2.428,4.985,4.985,0,0,1,1.354-1.78,6.921,6.921,0,0,0,1.311-1.427,2.241,2.241,0,0,0,.326-1.16q0-1.841-1.7-1.841a1.717,1.717,0,0,0-1.289.5,1.947,1.947,0,0,0-.506,1.368h-3.154a4.193,4.193,0,0,1,1.343-3.255,6.2,6.2,0,0,1,7.184-.06,3.97,3.97,0,0,1,1.273,3.152,3.84,3.84,0,0,1-.413,1.747,7.205,7.205,0,0,1-1.447,1.823l-.881.839a2.985,2.985,0,0,0-.946,1.861l-.044.664Zm-.316,3.334a1.582,1.582,0,0,1,.495-1.2,1.938,1.938,0,0,1,2.534,0,1.691,1.691,0,0,1,.011,2.38,1.985,1.985,0,0,1-2.556,0A1.571,1.571,0,0,1,960.984,630.214Z" transform="translate(0 0)" fill="#1789ea"/>
    </g>
  </g>
</svg>
