<svg xmlns="http://www.w3.org/2000/svg" xmlns:xlink="http://www.w3.org/1999/xlink" width="113.086" height="47.76" viewBox="0 0 113.086 47.76">
  <defs>
    <filter id="Rectangle_67" x="0" y="0" width="113.086" height="47.76" filterUnits="userSpaceOnUse">
      <feOffset dy="3" input="SourceAlpha"/>
      <feGaussianBlur stdDeviation="3" result="blur"/>
      <feFlood flood-opacity="0.161"/>
      <feComposite operator="in" in2="blur"/>
      <feComposite in="SourceGraphic"/>
    </filter>
    <clipPath id="clip-path">
      <rect id="Rectangle_256" data-name="Rectangle 256" width="24.629" height="24.629" fill="none"/>
    </clipPath>
  </defs>
  <g id="Group_2427" data-name="Group 2427" transform="translate(-870.779 -140)">
    <g id="Group_556" data-name="Group 556" transform="translate(879.78 146)">
      <g transform="matrix(1, 0, 0, 1, -9, -6)" filter="url(#Rectangle_67)">
        <rect id="Rectangle_67-2" data-name="Rectangle 67" width="95.086" height="29.76" rx="8" transform="translate(9 6)" fill="#fff"/>
      </g>
      <text id="Upload" transform="translate(39.975 19.396)" fill="#666" font-size="12" font-family="Roboto-Medium, Roboto" font-weight="500"><tspan x="0" y="0">Upload</tspan></text>
    </g>
    <g id="XMLID_1_" transform="translate(886.163 147.026)" opacity="0.54" clip-path="url(#clip-path)">
      <rect id="Rectangle_255" data-name="Rectangle 255" width="24.629" height="24.629" fill="none"/>
      <path id="Path_224" data-name="Path 224" d="M19.908,10.157A7.723,7.723,0,0,0,12.314,4,7.507,7.507,0,0,0,5.541,8.1a6.173,6.173,0,0,0,.616,12.314H19.5a5.081,5.081,0,0,0,5.131-5.131A5.224,5.224,0,0,0,19.908,10.157Zm-5.541,3.079v4.1h-4.1v-4.1H7.183L12.314,8.1l5.131,5.131Z" transform="translate(0 0.105)"/>
    </g>
  </g>
</svg>
