<?xml version="1.0" encoding="utf-8"?>
<!-- Generator: Adobe Illustrator 23.0.2, SVG Export Plug-In . SVG Version: 6.00 Build 0)  -->
<svg version="1.1" id="Layer_1" xmlns="http://www.w3.org/2000/svg" xmlns:xlink="http://www.w3.org/1999/xlink" x="0px" y="0px"
	 viewBox="0 0 512 512" style="enable-background:new 0 0 512 512;" xml:space="preserve">
<style type="text/css">
	.st0{fill:#FFFFFF;}
	.st1{fill:none;}
	.st2{fill:#FF9800;}
	.st3{fill:#C16B05;}
	.st4{fill:#CE7805;}
	.st5{fill:#A6DAF4;}
	.st6{fill:#41A1DB;}
	.st7{fill:#1789EA;}
	.st8{fill:#0167B3;}
	.st9{fill:#98D0F1;}
	.st10{fill:#F99E26;}
	.st11{fill:#FF9D00;}
	.st12{fill:#1A7DBA;}
	.st13{fill:#023E63;}
	.st14{fill:#606060;}
</style>
<g>
	<g>
		<g>
			<path class="st0" d="M253.36,7C144.86,7,56.91,94.95,56.91,203.45c0,49.67,18.45,95.03,48.85,129.63l132.84,12.41l3.98,0.06
				l163.53-18.58c27.32-33.75,43.7-76.72,43.7-123.52C449.8,94.95,361.85,7,253.36,7z"/>
		</g>
		<g>
			<polygon class="st1" points="217.58,156.83 217.56,155.94 213.09,157.92 213.09,165.49 227.2,159.47 			"/>
			<polygon class="st1" points="291.96,169.13 278.55,162.91 278.55,170.31 291.96,176.01 			"/>
			<polygon class="st2" points="213.09,66.41 213.09,46.6 149.69,90.29 149.69,170.74 176.8,156.87 176.3,93.01 			"/>
			<polygon class="st3" points="215.38,47.23 215.72,64.5 228.5,55.26 			"/>
			<polygon class="st3" points="217.56,155.94 217.58,156.83 227.2,159.47 238.59,154.61 238.59,162.6 242.58,163.69 242.58,155.03 
				278.55,170.31 278.55,162.91 242.58,146.23 242.58,63.87 238.59,61.44 238.59,146.65 			"/>
			<polygon class="st4" points="291.96,169.13 291.96,176.01 306.21,182.06 306.21,225.87 319.2,229.98 319.2,121.93 302.39,110.62 
				302.22,173.89 			"/>
			<polygon class="st5" points="278.55,162.91 291.96,169.13 291.96,103.61 302.39,110.62 302.43,91.54 242.58,47.34 242.58,63.87 
				278.55,85.89 			"/>
			<polygon class="st6" points="278.55,162.91 278.55,85.89 242.58,63.87 242.58,146.23 			"/>
			<polygon class="st6" points="291.96,169.13 302.22,173.89 302.39,110.62 291.96,103.61 			"/>
			<polygon class="st4" points="213.09,157.92 176.93,173.89 176.88,167.47 149.69,179.96 149.69,192.52 213.09,165.49 			"/>
			<polygon class="st4" points="149.69,234.52 149.69,239.63 213.09,224.57 213.09,218.32 			"/>
			<polygon class="st7" points="238.59,47.96 228.5,55.26 238.59,61.44 			"/>
			<polygon class="st7" points="213.09,157.92 217.56,155.94 215.72,64.5 213.09,66.41 213.09,138.29 176.8,156.87 176.88,167.47 
				213.09,150.84 			"/>
			<polygon class="st8" points="213.09,66.41 176.3,93.01 176.8,156.87 213.09,138.29 			"/>
			<polygon class="st7" points="238.59,146.65 238.59,61.44 228.5,55.26 215.72,64.5 217.56,155.94 			"/>
			<polygon class="st7" points="213.09,157.92 213.09,150.84 176.88,167.47 176.93,173.89 			"/>
			<polygon class="st9" points="291.96,176.01 278.55,170.31 278.55,173.57 242.58,163.69 242.58,211.99 306.21,229.08 
				306.21,225.87 291.96,221.36 			"/>
			<polygon class="st9" points="278.55,170.31 242.58,155.03 242.58,163.69 278.55,173.57 			"/>
			<polygon class="st6" points="291.96,176.01 291.96,221.36 306.21,225.87 306.21,182.06 			"/>
			<polygon class="st7" points="149.17,192.74 149.17,234.65 149.69,234.52 149.69,192.52 			"/>
			<polygon class="st7" points="213.09,165.49 213.09,218.32 238.59,211.81 238.59,162.6 227.2,159.47 			"/>
			<polygon class="st7" points="227.2,159.47 238.59,162.6 238.59,154.61 			"/>
			<polygon class="st8" points="213.09,165.49 149.69,192.52 149.69,234.52 213.09,218.32 			"/>
			<polygon class="st6" points="242.58,277.39 337.42,284.72 337.21,243.33 242.58,217.68 			"/>
			<polygon class="st7" points="149.69,282.63 149.69,239.63 149.48,239.68 149.48,284.93 238.59,277.6 238.59,218.52 
				213.09,224.57 213.09,267.33 			"/>
			<polygon class="st7" points="149.69,282.63 213.09,267.33 213.09,224.57 149.69,239.63 			"/>
			<polygon class="st8" points="242.58,282.32 242.58,345.54 361.52,332.35 361.21,290.49 			"/>
			<polygon class="st8" points="105.38,332.92 238.59,345.49 238.59,282.4 105.38,291.61 			"/>
			<polygon class="st2" points="146.23,144.34 105.38,171.37 105.38,247.12 145.29,235.17 			"/>
			<polygon class="st7" points="144.66,242.09 105.38,253.09 105.38,288.6 144.98,284.83 			"/>
			<polygon class="st2" points="365.61,290.8 365.61,331.34 407.09,326.63 407.09,294.26 			"/>
			<polygon class="st10" points="342.19,284.67 383.05,287.34 382.26,256.25 342.19,245 			"/>
			<polygon class="st11" points="346.28,215.13 323.49,205.94 323.49,234.54 346.28,241.93 			"/>
		</g>
		<polygon class="st12" points="213.09,224.57 212.29,272.01 149.86,278.83 149.28,239.56 		"/>
		<g>
			<path class="st2" d="M280.01,395.84h-18.47v21.21H244.6v-56.66h40.97v13.49h-24.03v9.21h18.47V395.84z"/>
			<path class="st2" d="M319.51,417.05l-3.2-11.17h-15.18l-3.4,11.17h-14.12l17.49-56.66h18.39l17.77,56.66H319.51z M304.08,393.51
				h9.17l-4.58-16.44L304.08,393.51z"/>
			<path class="st2" d="M404.07,360.39v56.66h-16.15v-40.51l-10.48,40.51H366.4l-10.9-40.51v40.51h-13.03v-56.66h22.72l8.22,30.09
				l7.84-30.09H404.07z"/>
		</g>
		<g>
			<path class="st8" d="M180.95,360.39v56.66H164.8v-40.51l-10.48,40.51h-11.04l-10.9-40.51v40.51h-13.03v-56.66h22.72l8.22,30.09
				l7.84-30.09H180.95z"/>
			<path class="st8" d="M237.86,360.39l-17.73,32.67v23.99h-16.89v-23.99l-19.06-32.67h19.03l9.93,18.68l9.52-18.68H237.86z"/>
		</g>
		<polygon class="st13" points="242.93,349.35 407.01,329.01 407.01,353.72 242.93,353.72 		"/>
		<polygon class="st13" points="105.54,336.59 238.55,349.44 238.55,353.72 105.54,353.72 		"/>
	</g>
	<g>
		<path class="st14" d="M88.19,460.2h-3.35c-0.39,0-0.69-0.1-0.91-0.29c-0.22-0.19-0.37-0.45-0.47-0.76L81.65,451H68.08l-3.82,8.15
			c-0.14,0.28-0.35,0.52-0.64,0.73c-0.29,0.21-0.61,0.31-0.97,0.31h-3.4l16.35-33.37h4.42L88.19,460.2z M80.95,447.84l-3.05-13.81
			c-0.08-0.42-0.17-0.9-0.28-1.46c-0.11-0.55-0.2-1.14-0.28-1.78c-0.23,0.65-0.47,1.25-0.7,1.79s-0.44,1.03-0.63,1.47l-6.45,13.78
			H80.95z"/>
		<path class="st14" d="M108.12,440.39c-0.12,0.19-0.25,0.32-0.37,0.41c-0.12,0.09-0.28,0.13-0.47,0.13c-0.22,0-0.45-0.08-0.71-0.26
			c-0.26-0.17-0.57-0.36-0.93-0.57s-0.81-0.4-1.34-0.58s-1.16-0.27-1.91-0.27c-0.7,0-1.33,0.1-1.91,0.29s-1.07,0.46-1.48,0.8
			c-0.41,0.34-0.73,0.74-0.95,1.2c-0.23,0.46-0.34,0.94-0.34,1.46c0,0.73,0.24,1.31,0.72,1.75c0.48,0.43,1.09,0.81,1.82,1.13
			s1.51,0.63,2.35,0.92c0.84,0.29,1.62,0.67,2.35,1.12c0.73,0.45,1.33,1.02,1.82,1.72c0.48,0.7,0.72,1.61,0.72,2.72
			c0,1.09-0.21,2.13-0.64,3.12c-0.43,0.99-1.04,1.87-1.84,2.62c-0.8,0.75-1.76,1.35-2.89,1.8c-1.13,0.45-2.39,0.67-3.78,0.67
			c-1.51,0-2.84-0.27-3.99-0.8c-1.16-0.54-2.1-1.22-2.83-2.06l1.02-1.58c0.14-0.2,0.29-0.36,0.45-0.47
			c0.16-0.11,0.38-0.16,0.64-0.16c0.25,0,0.5,0.11,0.75,0.33c0.25,0.22,0.56,0.46,0.93,0.73s0.84,0.52,1.41,0.73
			c0.57,0.22,1.28,0.33,2.15,0.33c0.76,0,1.45-0.12,2.06-0.35c0.61-0.23,1.13-0.54,1.56-0.93c0.43-0.39,0.75-0.84,0.98-1.36
			c0.22-0.52,0.34-1.07,0.34-1.66c0-0.79-0.24-1.42-0.72-1.89c-0.48-0.46-1.09-0.85-1.82-1.16s-1.51-0.6-2.35-0.87
			c-0.84-0.27-1.62-0.62-2.35-1.05c-0.73-0.43-1.33-0.98-1.82-1.67c-0.48-0.68-0.72-1.59-0.72-2.72c0-0.99,0.2-1.95,0.59-2.88
			c0.4-0.92,0.97-1.74,1.71-2.46s1.65-1.28,2.71-1.71c1.06-0.43,2.26-0.64,3.6-0.64c1.41,0,2.66,0.24,3.74,0.71
			c1.08,0.47,2.01,1.11,2.78,1.92L108.12,440.39z"/>
		<path class="st14" d="M128.15,440.39c-0.12,0.19-0.25,0.32-0.37,0.41c-0.12,0.09-0.28,0.13-0.47,0.13c-0.22,0-0.45-0.08-0.71-0.26
			c-0.26-0.17-0.57-0.36-0.93-0.57s-0.81-0.4-1.34-0.58s-1.16-0.27-1.91-0.27c-0.7,0-1.33,0.1-1.91,0.29s-1.07,0.46-1.48,0.8
			c-0.41,0.34-0.73,0.74-0.95,1.2c-0.23,0.46-0.34,0.94-0.34,1.46c0,0.73,0.24,1.31,0.72,1.75c0.48,0.43,1.09,0.81,1.82,1.13
			s1.51,0.63,2.35,0.92c0.84,0.29,1.62,0.67,2.35,1.12c0.73,0.45,1.33,1.02,1.82,1.72c0.48,0.7,0.72,1.61,0.72,2.72
			c0,1.09-0.21,2.13-0.64,3.12c-0.43,0.99-1.04,1.87-1.84,2.62c-0.8,0.75-1.76,1.35-2.89,1.8c-1.13,0.45-2.39,0.67-3.78,0.67
			c-1.51,0-2.84-0.27-3.99-0.8c-1.16-0.54-2.1-1.22-2.83-2.06l1.02-1.58c0.14-0.2,0.29-0.36,0.45-0.47
			c0.16-0.11,0.38-0.16,0.64-0.16c0.25,0,0.5,0.11,0.75,0.33c0.25,0.22,0.56,0.46,0.93,0.73s0.84,0.52,1.41,0.73
			c0.57,0.22,1.28,0.33,2.15,0.33c0.76,0,1.45-0.12,2.06-0.35c0.61-0.23,1.13-0.54,1.56-0.93c0.43-0.39,0.75-0.84,0.98-1.36
			c0.22-0.52,0.34-1.07,0.34-1.66c0-0.79-0.24-1.42-0.72-1.89c-0.48-0.46-1.09-0.85-1.82-1.16s-1.51-0.6-2.35-0.87
			c-0.84-0.27-1.62-0.62-2.35-1.05c-0.73-0.43-1.33-0.98-1.82-1.67c-0.48-0.68-0.72-1.59-0.72-2.72c0-0.99,0.2-1.95,0.59-2.88
			c0.4-0.92,0.97-1.74,1.71-2.46s1.65-1.28,2.71-1.71c1.06-0.43,2.26-0.64,3.6-0.64c1.41,0,2.66,0.24,3.74,0.71
			c1.08,0.47,2.01,1.11,2.78,1.92L128.15,440.39z"/>
		<path class="st14" d="M151.52,455.85c-0.79,0.82-1.57,1.53-2.33,2.11c-0.76,0.58-1.53,1.07-2.32,1.46
			c-0.78,0.39-1.61,0.67-2.47,0.85c-0.86,0.18-1.79,0.27-2.78,0.27c-1.35,0-2.56-0.23-3.63-0.68c-1.07-0.45-1.98-1.09-2.72-1.92
			c-0.75-0.83-1.32-1.83-1.72-3.01c-0.4-1.18-0.61-2.5-0.61-3.96c0-1.21,0.13-2.42,0.38-3.62c0.26-1.2,0.63-2.35,1.12-3.43
			c0.49-1.09,1.09-2.1,1.79-3.03c0.71-0.93,1.51-1.74,2.42-2.41c0.91-0.67,1.91-1.21,3-1.59s2.27-0.58,3.53-0.58
			c1.2,0,2.23,0.17,3.1,0.51c0.87,0.34,1.58,0.78,2.14,1.3c0.56,0.53,0.97,1.11,1.25,1.75s0.41,1.24,0.41,1.82
			c0,1.02-0.21,1.97-0.63,2.83c-0.42,0.86-1.19,1.64-2.3,2.33c-1.12,0.69-2.65,1.29-4.61,1.8c-1.96,0.51-4.47,0.92-7.54,1.23
			c0,0.17,0,0.34-0.01,0.5c-0.01,0.16-0.01,0.33-0.01,0.5c0,2.08,0.45,3.67,1.36,4.76s2.28,1.64,4.11,1.64
			c0.75,0,1.41-0.08,1.99-0.23c0.58-0.15,1.1-0.34,1.56-0.57c0.46-0.22,0.86-0.47,1.21-0.75c0.35-0.27,0.67-0.52,0.95-0.75
			c0.29-0.22,0.55-0.42,0.8-0.57c0.25-0.15,0.5-0.23,0.75-0.23c0.29,0,0.56,0.13,0.79,0.4L151.52,455.85z M144.96,439.27
			c-0.98,0-1.88,0.2-2.7,0.6c-0.82,0.4-1.55,0.96-2.19,1.67c-0.64,0.71-1.18,1.54-1.63,2.49c-0.45,0.96-0.8,1.98-1.05,3.08
			c2.39-0.29,4.31-0.63,5.75-1.01c1.44-0.38,2.55-0.79,3.33-1.23c0.78-0.44,1.29-0.92,1.54-1.43c0.25-0.51,0.37-1.05,0.37-1.61
			c0-0.28-0.06-0.57-0.19-0.87c-0.12-0.3-0.32-0.58-0.59-0.83s-0.63-0.45-1.06-0.62C146.11,439.35,145.58,439.27,144.96,439.27z"/>
		<path class="st14" d="M158.37,455.75c0-0.09,0-0.21,0-0.36s0.01-0.36,0.04-0.64c0.02-0.28,0.06-0.64,0.12-1.09
			c0.05-0.45,0.13-1.04,0.22-1.77l1.44-11.8h-2.63c-0.22,0-0.39-0.07-0.52-0.22s-0.18-0.38-0.15-0.69l0.19-1.65l3.63-0.49l1.77-7.29
			c0.08-0.23,0.2-0.42,0.36-0.57s0.37-0.22,0.62-0.22h2.17l-1,8.13h6.19l-0.35,3h-6.22l-1.42,11.6c-0.08,0.64-0.14,1.15-0.19,1.54
			c-0.05,0.39-0.08,0.7-0.1,0.93s-0.04,0.4-0.05,0.49c-0.01,0.09-0.01,0.16-0.01,0.21c0,0.79,0.19,1.38,0.56,1.76
			c0.37,0.38,0.87,0.57,1.49,0.57c0.42,0,0.78-0.06,1.08-0.17c0.3-0.12,0.57-0.25,0.8-0.38c0.23-0.14,0.43-0.27,0.58-0.38
			c0.15-0.12,0.29-0.17,0.4-0.17c0.14,0,0.24,0.03,0.31,0.09c0.07,0.06,0.14,0.16,0.2,0.3l0.88,1.98c-0.76,0.67-1.63,1.19-2.6,1.57
			c-0.97,0.38-1.94,0.57-2.92,0.57c-1.51,0-2.69-0.41-3.55-1.23C158.85,458.52,158.4,457.32,158.37,455.75z"/>
		<path class="st14" d="M223.87,426.84l-4.12,33.37h-3.8l3.03-24.66c0.05-0.31,0.1-0.65,0.17-1.02c0.07-0.37,0.15-0.76,0.24-1.16
			l-13.02,20.98c-0.4,0.67-0.96,1-1.68,1h-0.63c-0.34,0-0.64-0.08-0.9-0.26c-0.26-0.17-0.44-0.42-0.55-0.75l-8.06-20.98
			c-0.02,0.37-0.03,0.74-0.05,1.11c-0.02,0.37-0.04,0.7-0.07,1.01l-3,24.73h-3.84l4.1-33.37h3.21c0.39,0,0.67,0.05,0.84,0.15
			c0.17,0.1,0.36,0.3,0.58,0.59l8.08,20.98c0.11,0.31,0.2,0.62,0.28,0.93c0.08,0.31,0.15,0.63,0.23,0.96
			c0.15-0.33,0.31-0.64,0.47-0.96c0.15-0.31,0.33-0.62,0.51-0.93l13.13-20.98c0.26-0.31,0.5-0.51,0.7-0.61
			c0.2-0.09,0.5-0.14,0.88-0.14H223.87z"/>
		<path class="st14" d="M242.1,453.99c-0.56,0.99-1.16,1.89-1.8,2.7c-0.64,0.81-1.33,1.49-2.05,2.06c-0.72,0.57-1.48,1-2.28,1.32
			s-1.63,0.47-2.48,0.47c-0.93,0-1.78-0.18-2.54-0.55c-0.76-0.36-1.41-0.9-1.94-1.61c-0.54-0.71-0.95-1.58-1.25-2.61
			s-0.44-2.22-0.44-3.55c0-1.4,0.17-2.76,0.52-4.09s0.85-2.58,1.49-3.76c0.64-1.18,1.42-2.26,2.32-3.25
			c0.9-0.99,1.91-1.84,3.02-2.56c1.11-0.72,2.3-1.28,3.57-1.68c1.27-0.4,2.61-0.59,4-0.59c1.01,0,1.99,0.08,2.95,0.24
			c0.95,0.16,1.9,0.45,2.83,0.85l-2.82,22.82h-2.14c-0.54,0-0.91-0.14-1.11-0.42c-0.19-0.28-0.29-0.62-0.29-1.02L242.1,453.99z
			 M243.68,439.5c-0.34-0.08-0.68-0.13-1.01-0.15c-0.33-0.02-0.66-0.04-0.99-0.04c-0.93,0-1.83,0.15-2.7,0.45s-1.68,0.73-2.44,1.27
			c-0.76,0.54-1.45,1.19-2.07,1.94c-0.62,0.75-1.15,1.58-1.6,2.48s-0.79,1.86-1.04,2.88c-0.25,1.02-0.37,2.06-0.37,3.13
			c0,3.74,1.2,5.61,3.59,5.61c0.76,0,1.51-0.24,2.23-0.71s1.42-1.13,2.08-1.98c0.66-0.85,1.27-1.85,1.83-3
			c0.56-1.16,1.06-2.43,1.49-3.81L243.68,439.5z"/>
		<path class="st14" d="M258.65,442.58c1.26-2.08,2.68-3.65,4.26-4.71c1.58-1.06,3.21-1.59,4.89-1.59c0.99,0,1.87,0.2,2.62,0.59
			s1.37,0.97,1.84,1.73c0.47,0.76,0.79,1.7,0.97,2.81c0.17,1.11,0.17,2.37,0,3.78l-1.77,15.02h-4.12l1.77-15.02
			c0.22-1.86,0.1-3.24-0.35-4.13s-1.28-1.34-2.49-1.34c-0.75,0-1.5,0.2-2.27,0.6c-0.77,0.4-1.51,0.98-2.22,1.72
			s-1.38,1.64-1.99,2.69s-1.14,2.22-1.57,3.5l-1.35,11.97h-4.14l2.84-23.61h2.05c0.93,0,1.4,0.47,1.4,1.4L258.65,442.58z"/>
		<path class="st14" d="M293.37,453.99c-0.56,0.99-1.16,1.89-1.8,2.7c-0.64,0.81-1.33,1.49-2.05,2.06s-1.48,1-2.28,1.32
			c-0.8,0.31-1.63,0.47-2.48,0.47c-0.93,0-1.78-0.18-2.54-0.55c-0.76-0.36-1.41-0.9-1.94-1.61c-0.54-0.71-0.95-1.58-1.25-2.61
			s-0.44-2.22-0.44-3.55c0-1.4,0.17-2.76,0.52-4.09c0.35-1.33,0.85-2.58,1.49-3.76c0.64-1.18,1.42-2.26,2.32-3.25
			c0.9-0.99,1.91-1.84,3.01-2.56c1.11-0.72,2.3-1.28,3.57-1.68c1.27-0.4,2.61-0.59,4-0.59c1.01,0,1.99,0.08,2.95,0.24
			c0.96,0.16,1.9,0.45,2.83,0.85l-2.82,22.82h-2.14c-0.54,0-0.91-0.14-1.11-0.42s-0.29-0.62-0.29-1.02L293.37,453.99z M294.95,439.5
			c-0.34-0.08-0.68-0.13-1.01-0.15s-0.66-0.04-0.99-0.04c-0.93,0-1.83,0.15-2.7,0.45s-1.68,0.73-2.44,1.27
			c-0.76,0.54-1.45,1.19-2.07,1.94c-0.62,0.75-1.15,1.58-1.59,2.48s-0.79,1.86-1.04,2.88c-0.25,1.02-0.37,2.06-0.37,3.13
			c0,3.74,1.2,5.61,3.59,5.61c0.76,0,1.5-0.24,2.24-0.71c0.73-0.47,1.42-1.13,2.08-1.98c0.66-0.85,1.27-1.85,1.83-3
			s1.06-2.43,1.49-3.81L294.95,439.5z"/>
		<path class="st14" d="M325.43,437.48l-0.16,1.37c-0.08,0.56-0.39,0.93-0.93,1.12l-2.96,0.51c0.29,0.81,0.44,1.7,0.44,2.68
			c0,0.78-0.09,1.48-0.27,2.1c-0.18,0.62-0.4,1.2-0.66,1.72c-0.26,0.53-0.55,1.03-0.86,1.49c-0.31,0.47-0.6,0.93-0.86,1.39
			s-0.49,0.93-0.66,1.42c-0.18,0.49-0.27,1.02-0.27,1.6c0,0.42,0.07,0.82,0.22,1.2c0.15,0.38,0.33,0.75,0.56,1.12
			c0.22,0.37,0.47,0.73,0.75,1.11c0.27,0.37,0.52,0.77,0.75,1.19c0.22,0.42,0.41,0.87,0.56,1.36c0.15,0.49,0.22,1.03,0.22,1.62
			c-0.02,1.1-0.28,2.15-0.79,3.13c-0.51,0.99-1.24,1.86-2.19,2.62c-0.95,0.76-2.1,1.36-3.45,1.8s-2.87,0.66-4.56,0.66
			c-1.35,0-2.58-0.14-3.69-0.42c-1.11-0.28-2.06-0.68-2.84-1.19c-0.78-0.51-1.39-1.13-1.82-1.85c-0.43-0.72-0.64-1.52-0.64-2.39
			c0-0.99,0.21-1.87,0.63-2.63c0.42-0.76,0.99-1.42,1.7-1.97c0.71-0.55,1.54-1,2.49-1.36c0.95-0.36,1.95-0.62,3.02-0.79
			c1.06-0.17,2.15-0.25,3.27-0.24c1.12,0.01,2.21,0.09,3.28,0.24c-0.14-0.29-0.25-0.6-0.34-0.92c-0.09-0.32-0.13-0.66-0.13-1.04
			c0-0.48,0.07-0.98,0.22-1.49c0.15-0.51,0.39-1.09,0.73-1.75c-0.59,0.4-1.25,0.72-1.98,0.94c-0.73,0.22-1.56,0.34-2.49,0.34
			c-0.9,0-1.74-0.15-2.53-0.44c-0.78-0.29-1.47-0.73-2.06-1.3s-1.06-1.29-1.4-2.15c-0.34-0.86-0.51-1.87-0.51-3.02
			c0-1.12,0.21-2.22,0.62-3.29c0.41-1.08,1.01-2.04,1.8-2.89s1.77-1.53,2.93-2.04c1.16-0.51,2.51-0.77,4.03-0.77
			c0.84,0,1.64,0.1,2.4,0.3c0.76,0.2,1.44,0.5,2.05,0.91H325.43z M317.51,460.78c0-0.42-0.04-0.8-0.12-1.15
			c-0.08-0.35-0.18-0.68-0.3-0.99c-2.05-0.33-3.82-0.45-5.31-0.36c-1.49,0.09-2.72,0.31-3.69,0.69c-0.97,0.37-1.69,0.85-2.15,1.44
			c-0.46,0.59-0.7,1.23-0.7,1.91c0,1.12,0.47,1.97,1.41,2.56c0.94,0.59,2.27,0.88,3.99,0.88c1.02,0,1.96-0.14,2.81-0.41
			c0.85-0.27,1.57-0.63,2.17-1.08s1.06-0.98,1.4-1.58C317.34,462.09,317.51,461.45,317.51,460.78z M312.83,449.56
			c0.84,0,1.58-0.18,2.22-0.55c0.64-0.37,1.19-0.85,1.63-1.44c0.44-0.6,0.78-1.27,1.01-2.01s0.35-1.5,0.35-2.26
			c0-1.37-0.35-2.4-1.04-3.1c-0.69-0.7-1.64-1.05-2.85-1.05c-0.84,0-1.58,0.17-2.21,0.51c-0.64,0.34-1.18,0.8-1.62,1.37
			s-0.78,1.23-1,1.96c-0.23,0.73-0.34,1.49-0.34,2.28c0,1.4,0.34,2.46,1.01,3.19C310.68,449.2,311.62,449.56,312.83,449.56z"/>
		<path class="st14" d="M345.92,455.85c-0.79,0.82-1.57,1.53-2.33,2.11s-1.53,1.07-2.32,1.46c-0.78,0.39-1.61,0.67-2.47,0.85
			c-0.86,0.18-1.79,0.27-2.78,0.27c-1.35,0-2.56-0.23-3.63-0.68c-1.07-0.45-1.98-1.09-2.72-1.92c-0.75-0.83-1.32-1.83-1.72-3.01
			c-0.4-1.18-0.61-2.5-0.61-3.96c0-1.21,0.13-2.42,0.38-3.62c0.26-1.2,0.63-2.35,1.12-3.43c0.49-1.09,1.09-2.1,1.79-3.03
			c0.71-0.93,1.51-1.74,2.42-2.41s1.91-1.21,3-1.59c1.09-0.39,2.27-0.58,3.53-0.58c1.2,0,2.23,0.17,3.1,0.51
			c0.87,0.34,1.58,0.78,2.14,1.3c0.56,0.53,0.97,1.11,1.25,1.75s0.41,1.24,0.41,1.82c0,1.02-0.21,1.97-0.63,2.83
			s-1.19,1.64-2.31,2.33c-1.12,0.69-2.65,1.29-4.61,1.8c-1.96,0.51-4.47,0.92-7.54,1.23c0,0.17,0,0.34-0.01,0.5
			c-0.01,0.16-0.01,0.33-0.01,0.5c0,2.08,0.45,3.67,1.36,4.76c0.91,1.09,2.28,1.64,4.11,1.64c0.75,0,1.41-0.08,1.99-0.23
			c0.58-0.15,1.1-0.34,1.56-0.57c0.46-0.22,0.86-0.47,1.21-0.75c0.35-0.27,0.67-0.52,0.96-0.75c0.29-0.22,0.55-0.42,0.8-0.57
			c0.25-0.15,0.5-0.23,0.74-0.23c0.29,0,0.56,0.13,0.79,0.4L345.92,455.85z M339.35,439.27c-0.98,0-1.88,0.2-2.7,0.6
			c-0.82,0.4-1.55,0.96-2.19,1.67c-0.64,0.71-1.18,1.54-1.63,2.49c-0.45,0.96-0.8,1.98-1.05,3.08c2.39-0.29,4.31-0.63,5.75-1.01
			c1.44-0.38,2.55-0.79,3.33-1.23s1.29-0.92,1.54-1.43c0.25-0.51,0.37-1.05,0.37-1.61c0-0.28-0.06-0.57-0.19-0.87
			c-0.13-0.3-0.32-0.58-0.59-0.83c-0.27-0.25-0.63-0.45-1.06-0.62S339.97,439.27,339.35,439.27z"/>
		<path class="st14" d="M351.04,460.2l2.84-23.61h2.05c0.95,0,1.42,0.47,1.42,1.4l-0.33,4.19c1.16-1.94,2.44-3.41,3.83-4.41
			c1.39-1,2.84-1.5,4.37-1.5c1.6,0,2.78,0.55,3.54,1.64c0.76,1.09,1.14,2.66,1.14,4.69c1.16-2.16,2.48-3.75,3.95-4.79
			c1.47-1.03,3.02-1.55,4.65-1.55c2.02,0,3.45,0.78,4.28,2.33c0.84,1.55,1.09,3.75,0.75,6.59l-1.77,15.02h-4.1l1.79-15.02
			c0.22-1.85,0.16-3.22-0.17-4.12c-0.33-0.9-1.08-1.35-2.25-1.35c-0.67,0-1.33,0.17-1.99,0.5c-0.66,0.33-1.3,0.82-1.92,1.47
			c-0.62,0.64-1.2,1.44-1.73,2.4c-0.54,0.96-1.01,2.05-1.43,3.29v0.02l-1.51,12.81h-4.1l1.77-15.02c0.23-1.85,0.2-3.22-0.09-4.12
			c-0.29-0.9-1.02-1.35-2.19-1.35c-0.75,0-1.46,0.19-2.15,0.56c-0.69,0.37-1.34,0.91-1.96,1.62s-1.18,1.57-1.71,2.58
			c-0.53,1.02-1.01,2.16-1.44,3.43l-1.47,12.29H351.04z"/>
		<path class="st14" d="M407.64,455.85c-0.79,0.82-1.57,1.53-2.33,2.11s-1.53,1.07-2.32,1.46c-0.78,0.39-1.61,0.67-2.47,0.85
			c-0.86,0.18-1.79,0.27-2.78,0.27c-1.35,0-2.56-0.23-3.63-0.68c-1.07-0.45-1.98-1.09-2.72-1.92c-0.75-0.83-1.32-1.83-1.72-3.01
			c-0.4-1.18-0.61-2.5-0.61-3.96c0-1.21,0.13-2.42,0.38-3.62c0.26-1.2,0.63-2.35,1.12-3.43c0.49-1.09,1.09-2.1,1.79-3.03
			c0.71-0.93,1.51-1.74,2.42-2.41s1.91-1.21,3-1.59c1.09-0.39,2.27-0.58,3.53-0.58c1.2,0,2.23,0.17,3.1,0.51
			c0.87,0.34,1.58,0.78,2.14,1.3c0.56,0.53,0.97,1.11,1.25,1.75s0.41,1.24,0.41,1.82c0,1.02-0.21,1.97-0.63,2.83
			s-1.19,1.64-2.31,2.33c-1.12,0.69-2.65,1.29-4.61,1.8c-1.96,0.51-4.47,0.92-7.54,1.23c0,0.17,0,0.34-0.01,0.5
			c-0.01,0.16-0.01,0.33-0.01,0.5c0,2.08,0.45,3.67,1.36,4.76c0.91,1.09,2.28,1.64,4.11,1.64c0.75,0,1.41-0.08,1.99-0.23
			c0.58-0.15,1.1-0.34,1.56-0.57c0.46-0.22,0.86-0.47,1.21-0.75c0.35-0.27,0.67-0.52,0.96-0.75c0.29-0.22,0.55-0.42,0.8-0.57
			c0.25-0.15,0.5-0.23,0.74-0.23c0.29,0,0.56,0.13,0.79,0.4L407.64,455.85z M401.08,439.27c-0.98,0-1.88,0.2-2.7,0.6
			c-0.82,0.4-1.55,0.96-2.19,1.67c-0.64,0.71-1.18,1.54-1.63,2.49c-0.45,0.96-0.8,1.98-1.05,3.08c2.39-0.29,4.31-0.63,5.75-1.01
			c1.44-0.38,2.55-0.79,3.33-1.23s1.29-0.92,1.54-1.43c0.25-0.51,0.37-1.05,0.37-1.61c0-0.28-0.06-0.57-0.19-0.87
			c-0.13-0.3-0.32-0.58-0.59-0.83c-0.27-0.25-0.63-0.45-1.06-0.62S401.7,439.27,401.08,439.27z"/>
		<path class="st14" d="M418.7,442.58c1.26-2.08,2.68-3.65,4.26-4.71c1.58-1.06,3.21-1.59,4.89-1.59c0.99,0,1.87,0.2,2.62,0.59
			s1.37,0.97,1.84,1.73c0.47,0.76,0.79,1.7,0.97,2.81c0.17,1.11,0.17,2.37,0,3.78l-1.77,15.02h-4.12l1.77-15.02
			c0.22-1.86,0.1-3.24-0.35-4.13s-1.28-1.34-2.49-1.34c-0.75,0-1.5,0.2-2.27,0.6c-0.77,0.4-1.51,0.98-2.22,1.72
			s-1.38,1.64-1.99,2.69s-1.14,2.22-1.57,3.5l-1.35,11.97h-4.14l2.84-23.61h2.05c0.93,0,1.4,0.47,1.4,1.4L418.7,442.58z"/>
		<path class="st14" d="M440.42,455.75c0-0.09,0-0.21,0-0.36s0.01-0.36,0.04-0.64s0.06-0.64,0.12-1.09s0.13-1.04,0.22-1.77
			l1.44-11.8h-2.63c-0.22,0-0.39-0.07-0.52-0.22s-0.18-0.38-0.15-0.69l0.19-1.65l3.63-0.49l1.77-7.29c0.08-0.23,0.2-0.42,0.36-0.57
			s0.37-0.22,0.62-0.22h2.17l-1,8.13h6.19l-0.35,3h-6.22l-1.42,11.6c-0.08,0.64-0.14,1.15-0.19,1.54c-0.05,0.39-0.08,0.7-0.1,0.93
			s-0.04,0.4-0.05,0.49c-0.01,0.09-0.01,0.16-0.01,0.21c0,0.79,0.19,1.38,0.56,1.76c0.37,0.38,0.87,0.57,1.49,0.57
			c0.42,0,0.78-0.06,1.08-0.17c0.3-0.12,0.57-0.25,0.8-0.38c0.23-0.14,0.43-0.27,0.58-0.38s0.29-0.17,0.4-0.17
			c0.14,0,0.25,0.03,0.31,0.09c0.07,0.06,0.14,0.16,0.2,0.3l0.88,1.98c-0.76,0.67-1.63,1.19-2.6,1.57
			c-0.97,0.38-1.94,0.57-2.92,0.57c-1.51,0-2.69-0.41-3.55-1.23C440.9,458.52,440.46,457.32,440.42,455.75z"/>
	</g>
	<g>
		<path class="st14" d="M205.59,474.3c-0.17,0.22-0.33,0.38-0.49,0.5c-0.16,0.12-0.34,0.17-0.56,0.17c-0.26,0-0.54-0.14-0.84-0.41
			c-0.3-0.27-0.67-0.57-1.13-0.88c-0.46-0.32-1.01-0.61-1.67-0.88c-0.65-0.27-1.47-0.41-2.44-0.41c-0.99,0-1.88,0.16-2.65,0.46
			c-0.78,0.31-1.43,0.73-1.97,1.27c-0.54,0.54-0.94,1.16-1.22,1.87c-0.28,0.71-0.42,1.48-0.42,2.31c0,0.81,0.19,1.49,0.56,2.04
			s0.86,1.02,1.47,1.42c0.61,0.4,1.3,0.75,2.08,1.05c0.78,0.3,1.58,0.61,2.39,0.93s1.6,0.67,2.39,1.06
			c0.78,0.39,1.48,0.87,2.08,1.44s1.09,1.27,1.47,2.07c0.37,0.81,0.56,1.79,0.56,2.93c0,1.58-0.27,3.08-0.81,4.48
			c-0.54,1.4-1.32,2.63-2.34,3.69s-2.25,1.89-3.69,2.51c-1.44,0.62-3.07,0.93-4.87,0.93c-1.99,0-3.76-0.39-5.32-1.18
			c-1.56-0.78-2.84-1.84-3.85-3.18l1.54-2.07c0.12-0.17,0.28-0.31,0.47-0.42c0.19-0.11,0.39-0.16,0.61-0.16
			c0.29,0,0.61,0.17,0.95,0.52c0.34,0.35,0.78,0.74,1.3,1.16c0.53,0.43,1.18,0.82,1.96,1.17c0.78,0.35,1.75,0.52,2.91,0.52
			c1.07,0,2.04-0.17,2.9-0.51c0.86-0.34,1.59-0.82,2.19-1.42s1.06-1.33,1.39-2.18c0.33-0.85,0.49-1.78,0.49-2.81
			c0-0.85-0.19-1.56-0.56-2.13c-0.37-0.57-0.86-1.04-1.47-1.43c-0.61-0.39-1.3-0.73-2.07-1.01c-0.78-0.29-1.57-0.58-2.38-0.87
			c-0.81-0.29-1.6-0.63-2.38-1c-0.78-0.37-1.47-0.85-2.07-1.42s-1.09-1.28-1.47-2.12c-0.37-0.84-0.56-1.87-0.56-3.1
			c0-1.37,0.25-2.68,0.75-3.93c0.5-1.26,1.21-2.37,2.14-3.33c0.93-0.96,2.07-1.73,3.41-2.3c1.34-0.57,2.85-0.86,4.53-0.86
			c1.71,0,3.24,0.33,4.61,0.98c1.37,0.65,2.49,1.54,3.38,2.68L205.59,474.3z"/>
		<path class="st14" d="M230.97,478.91l-15.93,30.62c-0.17,0.33-0.37,0.57-0.59,0.72c-0.23,0.15-0.51,0.23-0.85,0.23h-3.05
			l5.12-9.38l-6.12-22.19h3.42c0.34,0,0.59,0.08,0.75,0.24c0.15,0.16,0.27,0.37,0.35,0.62l3.8,14.85c0.08,0.33,0.14,0.65,0.19,0.98
			c0.05,0.33,0.09,0.65,0.12,0.98c0.14-0.33,0.28-0.66,0.42-0.99s0.29-0.66,0.44-0.99l7.45-14.88c0.12-0.25,0.3-0.45,0.52-0.59
			s0.45-0.22,0.69-0.22H230.97z"/>
		<path class="st14" d="M247.78,482.68c-0.12,0.19-0.25,0.32-0.37,0.41c-0.12,0.09-0.28,0.13-0.47,0.13c-0.22,0-0.45-0.08-0.71-0.26
			c-0.26-0.17-0.57-0.36-0.93-0.57s-0.81-0.4-1.34-0.58s-1.16-0.27-1.91-0.27c-0.7,0-1.33,0.1-1.91,0.29s-1.07,0.46-1.48,0.8
			c-0.41,0.34-0.73,0.74-0.95,1.2c-0.23,0.46-0.34,0.94-0.34,1.46c0,0.73,0.24,1.31,0.72,1.75c0.48,0.43,1.09,0.81,1.82,1.13
			s1.51,0.63,2.35,0.92c0.84,0.29,1.62,0.67,2.35,1.12c0.73,0.45,1.33,1.02,1.82,1.72c0.48,0.7,0.72,1.61,0.72,2.72
			c0,1.09-0.21,2.13-0.64,3.12c-0.43,0.99-1.04,1.87-1.84,2.62c-0.8,0.75-1.76,1.35-2.89,1.8c-1.13,0.45-2.39,0.67-3.78,0.67
			c-1.51,0-2.84-0.27-3.99-0.8c-1.16-0.54-2.1-1.22-2.83-2.06l1.02-1.58c0.14-0.2,0.29-0.36,0.45-0.47
			c0.16-0.11,0.38-0.16,0.64-0.16c0.25,0,0.5,0.11,0.75,0.33c0.25,0.22,0.56,0.46,0.93,0.73s0.84,0.52,1.41,0.73
			c0.57,0.22,1.28,0.33,2.15,0.33c0.76,0,1.45-0.12,2.06-0.35c0.61-0.23,1.13-0.54,1.56-0.93c0.43-0.39,0.75-0.84,0.98-1.36
			c0.22-0.52,0.34-1.07,0.34-1.66c0-0.79-0.24-1.42-0.72-1.89c-0.48-0.46-1.09-0.85-1.82-1.16s-1.51-0.6-2.35-0.87
			c-0.84-0.27-1.62-0.62-2.35-1.05c-0.73-0.43-1.33-0.98-1.82-1.67c-0.48-0.68-0.72-1.59-0.72-2.72c0-0.99,0.2-1.95,0.59-2.88
			c0.4-0.92,0.97-1.74,1.71-2.46s1.65-1.28,2.71-1.71c1.06-0.43,2.26-0.64,3.6-0.64c1.41,0,2.66,0.24,3.74,0.71
			c1.08,0.47,2.01,1.11,2.78,1.92L247.78,482.68z"/>
		<path class="st14" d="M254.46,498.05c0-0.09,0-0.21,0-0.36s0.01-0.36,0.04-0.64c0.02-0.28,0.06-0.64,0.12-1.09
			c0.05-0.45,0.13-1.04,0.22-1.77l1.44-11.8h-2.63c-0.22,0-0.39-0.07-0.52-0.22s-0.18-0.38-0.15-0.69l0.19-1.65l3.63-0.49l1.77-7.29
			c0.08-0.23,0.2-0.42,0.36-0.57s0.37-0.22,0.62-0.22h2.17l-1,8.13h6.19l-0.35,3h-6.22l-1.42,11.6c-0.08,0.64-0.14,1.15-0.19,1.54
			c-0.05,0.39-0.08,0.7-0.1,0.93s-0.04,0.4-0.05,0.49c-0.01,0.09-0.01,0.16-0.01,0.21c0,0.79,0.19,1.38,0.56,1.76
			c0.37,0.38,0.87,0.57,1.49,0.57c0.42,0,0.78-0.06,1.08-0.17c0.3-0.12,0.57-0.25,0.8-0.38c0.23-0.14,0.43-0.27,0.58-0.38
			s0.29-0.17,0.4-0.17c0.14,0,0.25,0.03,0.31,0.09c0.07,0.06,0.14,0.16,0.2,0.3l0.88,1.98c-0.76,0.67-1.63,1.19-2.6,1.57
			c-0.97,0.38-1.94,0.57-2.92,0.57c-1.51,0-2.69-0.41-3.55-1.23C254.94,500.81,254.49,499.62,254.46,498.05z"/>
		<path class="st14" d="M288.55,498.14c-0.79,0.82-1.57,1.53-2.33,2.11s-1.53,1.07-2.32,1.46c-0.78,0.39-1.61,0.67-2.47,0.85
			c-0.86,0.18-1.79,0.27-2.78,0.27c-1.35,0-2.56-0.23-3.63-0.68c-1.07-0.45-1.98-1.09-2.72-1.92c-0.75-0.83-1.32-1.83-1.72-3.01
			c-0.4-1.18-0.61-2.5-0.61-3.96c0-1.21,0.13-2.42,0.38-3.62c0.26-1.2,0.63-2.35,1.12-3.43c0.49-1.09,1.09-2.1,1.79-3.03
			c0.71-0.93,1.51-1.74,2.42-2.41s1.91-1.21,3-1.59c1.09-0.39,2.27-0.58,3.53-0.58c1.2,0,2.23,0.17,3.1,0.51
			c0.87,0.34,1.58,0.78,2.14,1.3c0.56,0.53,0.97,1.11,1.25,1.75s0.41,1.24,0.41,1.82c0,1.02-0.21,1.97-0.63,2.83
			s-1.19,1.64-2.31,2.33c-1.12,0.69-2.65,1.29-4.61,1.8c-1.96,0.51-4.47,0.92-7.54,1.23c0,0.17,0,0.34-0.01,0.5
			c-0.01,0.16-0.01,0.33-0.01,0.5c0,2.08,0.45,3.67,1.36,4.76c0.91,1.09,2.28,1.64,4.11,1.64c0.75,0,1.41-0.08,1.99-0.23
			c0.58-0.15,1.1-0.34,1.56-0.57c0.46-0.22,0.86-0.47,1.21-0.75c0.35-0.27,0.67-0.52,0.96-0.75c0.29-0.22,0.55-0.42,0.8-0.57
			c0.25-0.15,0.5-0.23,0.74-0.23c0.29,0,0.56,0.13,0.79,0.4L288.55,498.14z M281.98,481.56c-0.98,0-1.88,0.2-2.7,0.6
			c-0.82,0.4-1.55,0.96-2.19,1.67c-0.64,0.71-1.18,1.54-1.63,2.49c-0.45,0.96-0.8,1.98-1.05,3.08c2.39-0.29,4.31-0.63,5.75-1.01
			c1.44-0.38,2.55-0.79,3.33-1.23s1.29-0.92,1.54-1.43c0.25-0.51,0.37-1.05,0.37-1.61c0-0.28-0.06-0.57-0.19-0.87
			c-0.13-0.3-0.32-0.58-0.59-0.83c-0.27-0.25-0.63-0.45-1.06-0.62S282.6,481.56,281.98,481.56z"/>
		<path class="st14" d="M293.67,502.5l2.84-23.61h2.05c0.95,0,1.42,0.47,1.42,1.4l-0.33,4.19c1.16-1.94,2.44-3.41,3.83-4.41
			c1.39-1,2.84-1.5,4.37-1.5c1.6,0,2.78,0.55,3.54,1.64c0.76,1.09,1.14,2.66,1.14,4.69c1.16-2.16,2.48-3.75,3.95-4.79
			c1.47-1.03,3.02-1.55,4.65-1.55c2.02,0,3.45,0.78,4.28,2.33c0.84,1.55,1.09,3.75,0.75,6.59l-1.77,15.02h-4.1l1.79-15.02
			c0.22-1.85,0.16-3.22-0.17-4.12c-0.33-0.9-1.08-1.35-2.25-1.35c-0.67,0-1.33,0.17-1.99,0.5c-0.66,0.33-1.3,0.82-1.92,1.47
			c-0.62,0.64-1.2,1.44-1.73,2.4c-0.54,0.96-1.01,2.05-1.43,3.29v0.02l-1.51,12.81h-4.1l1.77-15.02c0.23-1.85,0.2-3.22-0.09-4.12
			c-0.29-0.9-1.02-1.35-2.19-1.35c-0.75,0-1.46,0.19-2.15,0.56c-0.69,0.37-1.34,0.91-1.96,1.62s-1.18,1.57-1.71,2.58
			c-0.53,1.02-1.01,2.16-1.44,3.43l-1.47,12.29H293.67z"/>
	</g>
</g>
</svg>
