<svg xmlns="http://www.w3.org/2000/svg" width="16" height="16" viewBox="0 0 16 16">
  <g id="User_setting" data-name="User setting" transform="translate(-1099 121)">
    <g id="icon_setting" transform="translate(1106.809 -113.192)">
      <path id="Path_108" data-name="Path 108" d="M6.809,2.662l.563-1.075L6.656.87,5.58,1.433a1.834,1.834,0,0,0-.563-.2L4.608,0H3.584l-.41,1.178a2.14,2.14,0,0,0-.512.2L1.587.819l-.768.768.563,1.075a2.14,2.14,0,0,0-.2.512L0,3.584V4.608l1.178.41c.051.2.154.358.2.563L.819,6.656l.717.717,1.075-.563a1.834,1.834,0,0,0,.563.2l.41,1.178H4.608l.41-1.178c.2-.051.358-.154.563-.2l1.075.563.717-.717L6.809,5.58a1.834,1.834,0,0,0,.2-.563l1.178-.41V3.584l-1.178-.41A2.14,2.14,0,0,0,6.809,2.662ZM4.1,5.632A1.508,1.508,0,0,1,2.56,4.1,1.508,1.508,0,0,1,4.1,2.56,1.508,1.508,0,0,1,5.632,4.1,1.508,1.508,0,0,1,4.1,5.632Z" fill="#fff"/>
    </g>
    <path id="Path_366" data-name="Path 366" d="M7,2A2.006,2.006,0,0,1,9,4V5A2,2,0,0,1,5,5V4A2.006,2.006,0,0,1,7,2M7,0A4.012,4.012,0,0,0,3,4V5a4,4,0,0,0,8,0V4A4.012,4.012,0,0,0,7,0Z" transform="translate(1098.93 -121)" fill="#fff"/>
    <path id="Path_368" data-name="Path 368" d="M8,16H0V15a4.951,4.951,0,0,1,5-5H8v2H5a2.913,2.913,0,0,0-2.8,2H8Z" transform="translate(1099 -122.192)" fill="#fff"/>
  </g>
</svg>
