<?xml version="1.0" encoding="utf-8"?>
<!-- Generator: Adobe Illustrator 23.0.1, SVG Export Plug-In . SVG Version: 6.00 Build 0)  -->
<svg version="1.1" id="Layer_1" xmlns="http://www.w3.org/2000/svg" xmlns:xlink="http://www.w3.org/1999/xlink" x="0px" y="0px"
	 viewBox="0 0 48 48" style="enable-background:new 0 0 48 48;" xml:space="preserve">
<style type="text/css">
	.st0{fill:#FFFFFF;}
</style>
<g>
	<path class="st0" d="M16.19,44.64H7.33c-0.67,0-1.22-0.55-1.22-1.22V2.86c0-0.67,0.55-1.22,1.22-1.22h18.55
		c0.67,0,1.22,0.55,1.22,1.22v8.55c0,1.23,1,2.22,2.22,2.22h8.55c0.67,0,1.22,0.55,1.22,1.22v5.21h1v-5.21
		c0-0.93-0.57-1.72-1.38-2.06L27.94,2.02c-0.33-0.81-1.13-1.38-2.06-1.38H7.33c-1.23,0-2.22,1-2.22,2.22v40.55
		c0,1.23,1,2.22,2.22,2.22h8.86V44.64z M28.11,11.42V3.6l9.04,9.04h-7.81C28.66,12.64,28.11,12.09,28.11,11.42z"/>
	<path class="st0" d="M42.75,22.82l-2.12-2.12c-0.19-0.19-0.52-0.19-0.71,0l-2.47,2.48L19.76,40.85c-0.07,0.07-0.1,0.15-0.12,0.23
		c-0.13,0.03-0.24,0.1-0.31,0.22l-3.18,5.3c-0.12,0.2-0.09,0.45,0.08,0.61c0.1,0.1,0.22,0.15,0.35,0.15c0.09,0,0.18-0.02,0.26-0.07
		l5.3-3.18c0.11-0.07,0.18-0.18,0.22-0.31c0.09-0.02,0.17-0.06,0.23-0.12L40.27,26l2.48-2.47c0.09-0.09,0.15-0.22,0.15-0.35
		S42.84,22.91,42.75,22.82z M18.04,45.4l1.82-3.04l1.22,1.22L18.04,45.4z M21.89,42.97l-1.41-1.41L37.8,24.23l1.41,1.41L21.89,42.97
		z M39.92,24.94l-1.41-1.41l1.77-1.77l1.41,1.41L39.92,24.94z"/>
	<path class="st0" d="M19.45,31.85v-1.76c1.74-0.29,2.67-1.54,2.67-2.87c0-1.5-0.88-2.38-2.62-3.09c-1.47-0.61-2.1-1.05-2.1-1.93
		c0-0.68,0.49-1.45,1.79-1.45c1.08,0,1.78,0.37,2.13,0.57l0.42-1.12c-0.49-0.29-1.18-0.56-2.2-0.59v-1.64h-1.05v1.71
		c-1.55,0.25-2.55,1.32-2.55,2.72c0,1.47,1.07,2.25,2.79,2.93c1.25,0.51,1.91,1.08,1.91,2.01c0,0.96-0.81,1.66-2.01,1.66
		c-0.95,0-1.83-0.32-2.43-0.73L15.8,29.4c0.59,0.42,1.61,0.73,2.59,0.74v1.71H19.45z"/>
</g>
</svg>
