<svg xmlns="http://www.w3.org/2000/svg" width="16.232" height="19.177" viewBox="0 0 16.232 19.177">
  <g id="Group_5565" data-name="Group 5565" transform="translate(9019 -3585.088)">
    <path id="Path_868" data-name="Path 868" d="M6.444,0A1.614,1.614,0,1,1,4.83,1.614,1.616,1.616,0,0,1,6.444,0Z" transform="translate(-9021.604 3585.088)" fill="#f8f4f4"/>
    <path id="Path_869" data-name="Path 869" d="M10.3,11.349A7.5,7.5,0,0,1,5.236,8.088a.822.822,0,0,0-.71-.351A2.166,2.166,0,0,0,2.7,7.945a.815.815,0,0,0-.337.184A6.455,6.455,0,0,0,.006,13.235c.032,1.038,1.646,1.042,1.614,0a4.5,4.5,0,0,1,.267-1.716v2.675c0,.042,0,.078,0,.115,0,.018,0,.032,0,.051,0,2.68,0,5.355-.115,8.034-.051,1.19,1.794,1.185,1.845,0,.083-2.1.1-4.2.111-6.3a2.5,2.5,0,0,0,.263,0c0,2.1.028,4.2.115,6.3.046,1.185,1.9,1.19,1.845,0-.111-2.675-.115-5.355-.115-8.034a.867.867,0,0,0-.028-.226v-3.1A8.192,8.192,0,0,0,9.876,12.9C10.891,13.055,11.329,11.5,10.3,11.349Z" transform="translate(-9019.003 3580.98)" fill="#f8f4f4"/>
    <path id="Path_870" data-name="Path 870" d="M28.34,28.315a.3.3,0,0,0-.341.258l-.669,4.879h-.807c.032-.189.341-.189.341-.42,0-.277-.009-.415-.323-.563a.852.852,0,0,0-.646,0,2.39,2.39,0,0,1-.323.563.31.31,0,0,0,.037.42h-1.1l-.969-4.9a.3.3,0,0,0-.355-.24.3.3,0,0,0-.235.355l1.015,5.142a.3.3,0,0,0,.3.244h3.325a.3.3,0,0,0,.3-.263l.706-5.142A.294.294,0,0,0,28.34,28.315Z" transform="translate(-9031.365 3569.834)" fill="#f8f4f4"/>
    <path id="Path_871" data-name="Path 871" d="M26.847,34.274c.323.032.775.341.646,0s.327-.286.323-.563-.009-.41-.323-.558a.852.852,0,0,0-.646,0,2.3,2.3,0,0,1-.323.558C26.358,33.891,26.524,34.242,26.847,34.274Z" transform="translate(-9033.257 3567.26)" fill="#f8f4f4"/>
    <path id="Path_872" data-name="Path 872" d="M30.835,30.792c.221.092.5-.184.41-.5s.046-.849-.231-.6-.383-.2-.636-.106-.383.152-.41.5a.863.863,0,0,0,.231.609A2.293,2.293,0,0,1,30.835,30.792Z" transform="translate(-9035.146 3569.156)" fill="#f8f4f4"/>
    <path id="Path_873" data-name="Path 873" d="M24.11,21.381a1.8,1.8,0,0,1,.447-.231c.184-.046.226-.346.023-.5s-.364-.553-.424-.272-.332.051-.447.231-.171.272-.023.5A.657.657,0,0,0,24.11,21.381Z" transform="translate(-9031.715 3574.163)" fill="#f8f4f4"/>
    <path id="Path_874" data-name="Path 874" d="M27.7,29.633c.074-.125.281-.244.12-.254s-.051-.18-.161-.231a.209.209,0,0,0-.281.023.377.377,0,0,0-.12.254,1.138,1.138,0,0,1,.161.231C27.458,29.753,27.629,29.753,27.7,29.633Z" transform="translate(-9033.689 3569.406)" fill="#f8f4f4"/>
    <path id="Path_875" data-name="Path 875" d="M28.34,28.315a.3.3,0,0,0-.341.258l-.669,4.879h-.807c.032-.189.341-.189.341-.42,0-.277-.009-.415-.323-.563a.852.852,0,0,0-.646,0,2.39,2.39,0,0,1-.323.563.31.31,0,0,0,.037.42h-1.1l-.969-4.9a.3.3,0,0,0-.355-.24.3.3,0,0,0-.235.355l1.015,5.142a.3.3,0,0,0,.3.244h3.325a.3.3,0,0,0,.3-.263l.706-5.142A.294.294,0,0,0,28.34,28.315Z" transform="translate(-9031.365 3569.834)" fill="#f8f4f4"/>
    <path id="Path_876" data-name="Path 876" d="M26.847,34.274c.323.032.775.341.646,0s.327-.286.323-.563-.009-.41-.323-.558a.852.852,0,0,0-.646,0,2.3,2.3,0,0,1-.323.558C26.358,33.891,26.524,34.242,26.847,34.274Z" transform="translate(-9033.257 3567.26)" fill="#f8f4f4"/>
    <path id="Path_877" data-name="Path 877" d="M30.835,30.792c.221.092.5-.184.41-.5s.046-.849-.231-.6-.383-.2-.636-.106-.383.152-.41.5a.863.863,0,0,0,.231.609A2.293,2.293,0,0,1,30.835,30.792Z" transform="translate(-9035.146 3569.156)" fill="#f8f4f4"/>
    <path id="Path_878" data-name="Path 878" d="M24.11,21.381a1.8,1.8,0,0,1,.447-.231c.184-.046.226-.346.023-.5s-.364-.553-.424-.272-.332.051-.447.231-.171.272-.023.5A.657.657,0,0,0,24.11,21.381Z" transform="translate(-9031.715 3574.163)" fill="#f8f4f4"/>
    <path id="Path_879" data-name="Path 879" d="M27.7,29.633c.074-.125.281-.244.12-.254s-.051-.18-.161-.231a.209.209,0,0,0-.281.023.377.377,0,0,0-.12.254,1.138,1.138,0,0,1,.161.231C27.458,29.753,27.629,29.753,27.7,29.633Z" transform="translate(-9033.689 3569.406)" fill="#f8f4f4"/>
  </g>
</svg>
