<?xml version="1.0" encoding="utf-8"?>
<!-- Generator: Adobe Illustrator 23.0.1, SVG Export Plug-In . SVG Version: 6.00 Build 0)  -->
<svg version="1.1" id="Layer_1" xmlns="http://www.w3.org/2000/svg" xmlns:xlink="http://www.w3.org/1999/xlink" x="0px" y="0px"
	 viewBox="0 0 48 48" style="enable-background:new 0 0 48 48;" xml:space="preserve">
<style type="text/css">
	.st0{fill:#FFFFFF;}
</style>
<g>
	<path class="st0" d="M41.85,13.15L41.85,13.15L29.85,1.15l-0.01,0.01c-0.4-0.4-0.96-0.65-1.57-0.65H7.72c-1.23,0-2.22,1-2.22,2.22
		v42.55c0,1.23,1,2.22,2.22,2.22H22.5v-1H7.72c-0.67,0-1.22-0.55-1.22-1.22V2.72c0-0.67,0.55-1.22,1.22-1.22h20.55
		c0.67,0,1.22,0.55,1.22,1.22v8.55c0,1.23,1,2.22,2.22,2.22h8.55c0.67,0,1.22,0.55,1.22,1.22v8.78h1v-8.78
		C42.5,14.11,42.25,13.55,41.85,13.15z M30.5,11.28V3.21l9.29,9.29h-8.07C31.05,12.5,30.5,11.95,30.5,11.28z"/>
	<polygon class="st0" points="39.6,27.44 32,35.04 24.4,27.44 23.69,28.15 31.29,35.75 23.69,43.35 24.4,44.06 32,36.46 39.6,44.06 
		40.31,43.35 32.71,35.75 40.31,28.15 	"/>
</g>
</svg>
