<?xml version="1.0" encoding="utf-8"?>
<!-- Generator: Adobe Illustrator 23.0.1, SVG Export Plug-In . SVG Version: 6.00 Build 0)  -->
<svg version="1.1" id="Layer_1" xmlns="http://www.w3.org/2000/svg" xmlns:xlink="http://www.w3.org/1999/xlink" x="0px" y="0px"
	 viewBox="0 0 48 48" style="enable-background:new 0 0 48 48;" xml:space="preserve">
<style type="text/css">
	<!-- .st0{fill:#FFFFFF;} -->
</style>
<g>
	<path class="st0" d="M6.12,45.28V2.72c0-0.67,0.55-1.22,1.22-1.22H27.9c0.67,0,1.22,0.55,1.22,1.22v8.55c0,1.23,1,2.22,2.22,2.22
		h8.55c0.67,0,1.22,0.55,1.22,1.22v8.78h1v-8.78c0-0.61-0.25-1.17-0.65-1.57l0.01-0.01l-12-12l-0.01,0.01
		c-0.4-0.4-0.96-0.65-1.57-0.65H7.35c-1.23,0-2.22,1-2.22,2.22v42.55c0,1.23,1,2.22,2.22,2.22h14.78v-1H7.35
		C6.67,46.5,6.12,45.95,6.12,45.28z M30.12,11.28V3.21l9.29,9.29h-8.07C30.67,12.5,30.12,11.95,30.12,11.28z"/>
	<polygon class="st0" points="42.88,35.25 32.12,35.25 32.12,24.5 31.12,24.5 31.12,35.25 20.38,35.25 20.38,36.25 31.12,36.25 
		31.12,47 32.12,47 32.12,36.25 42.88,36.25 	"/>
</g>
</svg>
