<svg xmlns="http://www.w3.org/2000/svg" width="13.462" height="13.568" viewBox="0 0 13.462 13.568">
  <g id="Group_5563" data-name="Group 5563" transform="translate(-947.099 -643.099)">
    <path id="Subtraction_1" data-name="Subtraction 1" d="M9089.9-1864.2H9084V-1876h9.817l1.986,1.934v3.968h-1.292v-3.425l-1.217-1.185h-.521v4.557h-5.85v-4.557h-1.632v9.219h4.609v1.289Zm.29-10.509v3.267h1.289v-3.267Z" transform="translate(-8136.901 2519.099)" fill="#1789ea"/>
    <path id="Path_797" data-name="Path 797" d="M3,8.191V9.558H4.367L8.4,5.528,7.031,4.161ZM9.454,4.471a.363.363,0,0,0,0-.514L8.6,3.1a.363.363,0,0,0-.514,0l-.667.667L8.787,5.138l.667-.667Z" transform="translate(951 647.109)" fill="#1789ea"/>
  </g>
</svg>
