<?xml version="1.0" encoding="utf-8"?>
<!-- Generator: Adobe Illustrator 23.0.1, SVG Export Plug-In . SVG Version: 6.00 Build 0)  -->
<svg version="1.1" id="Layer_1" xmlns="http://www.w3.org/2000/svg" xmlns:xlink="http://www.w3.org/1999/xlink" x="0px" y="0px"
	 viewBox="0 0 42 42" style="enable-background:new 0 0 42 42;" xml:space="preserve">
<style type="text/css">
	<!-- .st0{fill:#606060;} -->
</style>
<g>
	<g>
		<path class="st0" d="M37.03,41.48H4.97c-1.25,0-2.27-1.02-2.27-2.27V7.15c0-1.25,1.02-2.27,2.27-2.27h3.38v1H4.97
			c-0.7,0-1.27,0.57-1.27,1.27v32.06c0,0.7,0.57,1.27,1.27,1.27h32.06c0.7,0,1.27-0.57,1.27-1.27V7.15c0-0.7-0.57-1.27-1.27-1.27
			h-2.96v-1h2.96c1.25,0,2.27,1.02,2.27,2.27v32.06C39.3,40.46,38.28,41.48,37.03,41.48z"/>
	</g>
	<g>
		<rect x="14.88" y="4.88" class="st0" width="12.62" height="1"/>
	</g>
	<g>
		<rect x="3.63" y="12.79" class="st0" width="34.67" height="1"/>
	</g>
	<g>
		<g>
			<path class="st0" d="M11.61,10.57C10,10.57,8.7,9.26,8.7,7.66V3.43c0-1.61,1.31-2.91,2.91-2.91c1.61,0,2.91,1.31,2.91,2.91v4.22
				C14.53,9.26,13.22,10.57,11.61,10.57z M11.61,1.52c-1.06,0-1.91,0.86-1.91,1.91v4.22c0,1.06,0.86,1.91,1.91,1.91
				s1.91-0.86,1.91-1.91V3.43C13.53,2.38,12.67,1.52,11.61,1.52z"/>
		</g>
		<g>
			<path class="st0" d="M30.74,10.57c-1.61,0-2.91-1.31-2.91-2.91V3.43c0-1.61,1.31-2.91,2.91-2.91s2.91,1.31,2.91,2.91v4.22
				C33.65,9.26,32.34,10.57,30.74,10.57z M30.74,1.52c-1.06,0-1.91,0.86-1.91,1.91v4.22c0,1.06,0.86,1.91,1.91,1.91
				s1.91-0.86,1.91-1.91V3.43C32.65,2.38,31.79,1.52,30.74,1.52z"/>
		</g>
	</g>
	<g>
		<g>
			<path class="st0" d="M18.21,22.89h-1.46c-1.24,0-2.25-1.01-2.25-2.25v-1.46c0-1.24,1.01-2.25,2.25-2.25h1.46
				c1.24,0,2.25,1.01,2.25,2.25v1.46C20.46,21.88,19.45,22.89,18.21,22.89z M16.75,17.93c-0.69,0-1.25,0.56-1.25,1.25v1.46
				c0,0.69,0.56,1.25,1.25,1.25h1.46c0.69,0,1.25-0.56,1.25-1.25v-1.46c0-0.69-0.56-1.25-1.25-1.25H16.75z"/>
		</g>
		<g>
			<path class="st0" d="M25.5,22.89h-1.46c-1.24,0-2.25-1.01-2.25-2.25v-1.46c0-1.24,1.01-2.25,2.25-2.25h1.46
				c1.24,0,2.25,1.01,2.25,2.25v1.46C27.75,21.88,26.74,22.89,25.5,22.89z M24.04,17.93c-0.69,0-1.25,0.56-1.25,1.25v1.46
				c0,0.69,0.56,1.25,1.25,1.25h1.46c0.69,0,1.25-0.56,1.25-1.25v-1.46c0-0.69-0.56-1.25-1.25-1.25H24.04z"/>
		</g>
		<g>
			<path class="st0" d="M32.79,22.89h-1.46c-1.24,0-2.25-1.01-2.25-2.25v-1.46c0-1.24,1.01-2.25,2.25-2.25h1.46
				c1.24,0,2.25,1.01,2.25,2.25v1.46C35.05,21.88,34.03,22.89,32.79,22.89z M31.34,17.93c-0.69,0-1.25,0.56-1.25,1.25v1.46
				c0,0.69,0.56,1.25,1.25,1.25h1.46c0.69,0,1.25-0.56,1.25-1.25v-1.46c0-0.69-0.56-1.25-1.25-1.25H31.34z"/>
		</g>
	</g>
	<g>
		<g>
			<path class="st0" d="M18.21,30.02h-1.46c-1.24,0-2.25-1.01-2.25-2.25v-1.46c0-1.24,1.01-2.25,2.25-2.25h1.46
				c1.24,0,2.25,1.01,2.25,2.25v1.46C20.46,29.01,19.45,30.02,18.21,30.02z M16.75,25.06c-0.69,0-1.25,0.56-1.25,1.25v1.46
				c0,0.69,0.56,1.25,1.25,1.25h1.46c0.69,0,1.25-0.56,1.25-1.25v-1.46c0-0.69-0.56-1.25-1.25-1.25
				C18.21,25.06,16.75,25.06,16.75,25.06z"/>
		</g>
		<g>
			<path class="st0" d="M10.92,30.02H9.46c-1.24,0-2.25-1.01-2.25-2.25v-1.46c0-1.24,1.01-2.25,2.25-2.25h1.46
				c1.24,0,2.25,1.01,2.25,2.25v1.46C13.17,29.01,12.16,30.02,10.92,30.02z M9.46,25.06c-0.69,0-1.25,0.56-1.25,1.25v1.46
				c0,0.69,0.56,1.25,1.25,1.25h1.46c0.69,0,1.25-0.56,1.25-1.25v-1.46c0-0.69-0.56-1.25-1.25-1.25
				C10.92,25.06,9.46,25.06,9.46,25.06z"/>
		</g>
		<g>
			<path class="st0" d="M25.5,30.02h-1.46c-1.24,0-2.25-1.01-2.25-2.25v-1.46c0-1.24,1.01-2.25,2.25-2.25h1.46
				c1.24,0,2.25,1.01,2.25,2.25v1.46C27.75,29.01,26.74,30.02,25.5,30.02z M24.04,25.06c-0.69,0-1.25,0.56-1.25,1.25v1.46
				c0,0.69,0.56,1.25,1.25,1.25h1.46c0.69,0,1.25-0.56,1.25-1.25v-1.46c0-0.69-0.56-1.25-1.25-1.25
				C25.5,25.06,24.04,25.06,24.04,25.06z"/>
		</g>
		<g>
			<path class="st0" d="M32.79,30.02h-1.46c-1.24,0-2.25-1.01-2.25-2.25v-1.46c0-1.24,1.01-2.25,2.25-2.25h1.46
				c1.24,0,2.25,1.01,2.25,2.25v1.46C35.05,29.01,34.03,30.02,32.79,30.02z M31.34,25.06c-0.69,0-1.25,0.56-1.25,1.25v1.46
				c0,0.69,0.56,1.25,1.25,1.25h1.46c0.69,0,1.25-0.56,1.25-1.25v-1.46c0-0.69-0.56-1.25-1.25-1.25
				C32.8,25.06,31.34,25.06,31.34,25.06z"/>
		</g>
	</g>
	<g>
		<g>
			<path class="st0" d="M18.21,37.15h-1.46c-1.24,0-2.25-1.01-2.25-2.25v-1.46c0-1.24,1.01-2.25,2.25-2.25h1.46
				c1.24,0,2.25,1.01,2.25,2.25v1.46C20.46,36.14,19.45,37.15,18.21,37.15z M16.75,32.19c-0.69,0-1.25,0.56-1.25,1.25v1.46
				c0,0.69,0.56,1.25,1.25,1.25h1.46c0.69,0,1.25-0.56,1.25-1.25v-1.46c0-0.69-0.56-1.25-1.25-1.25H16.75z"/>
		</g>
		<g>
			<path class="st0" d="M10.92,37.15H9.46c-1.24,0-2.25-1.01-2.25-2.25v-1.46c0-1.24,1.01-2.25,2.25-2.25h1.46
				c1.24,0,2.25,1.01,2.25,2.25v1.46C13.17,36.14,12.16,37.15,10.92,37.15z M9.46,32.19c-0.69,0-1.25,0.56-1.25,1.25v1.46
				c0,0.69,0.56,1.25,1.25,1.25h1.46c0.69,0,1.25-0.56,1.25-1.25v-1.46c0-0.69-0.56-1.25-1.25-1.25H9.46z"/>
		</g>
		<g>
			<path class="st0" d="M25.5,37.15h-1.46c-1.24,0-2.25-1.01-2.25-2.25v-1.46c0-1.24,1.01-2.25,2.25-2.25h1.46
				c1.24,0,2.25,1.01,2.25,2.25v1.46C27.75,36.14,26.74,37.15,25.5,37.15z M24.04,32.19c-0.69,0-1.25,0.56-1.25,1.25v1.46
				c0,0.69,0.56,1.25,1.25,1.25h1.46c0.69,0,1.25-0.56,1.25-1.25v-1.46c0-0.69-0.56-1.25-1.25-1.25H24.04z"/>
		</g>
	</g>
</g>
</svg>
