<?xml version="1.0" encoding="utf-8"?>
<!-- Generator: Adobe Illustrator 23.0.1, SVG Export Plug-In . SVG Version: 6.00 Build 0)  -->
<svg version="1.1" id="Layer_1" xmlns="http://www.w3.org/2000/svg" xmlns:xlink="http://www.w3.org/1999/xlink" x="0px" y="0px"
	 viewBox="0 0 48 48" style="enable-background:new 0 0 48 48;" xml:space="preserve">
<style type="text/css">
	.st0{fill:#606060;}
</style>
<g>
	<g>
		<g>
			<path class="st0" d="M22.39,9.91H7.59c-0.42,0-0.78-0.26-0.91-0.66s0.01-0.82,0.35-1.07l7.4-5.38c0.33-0.24,0.79-0.25,1.12,0
				l7.4,5.38c0.34,0.25,0.48,0.67,0.35,1.07C23.17,9.65,22.81,9.91,22.39,9.91z M14.99,3.63L7.61,8.99l14.77-0.08L14.99,3.63z"/>
		</g>
		<g>
			<g>
				<path class="st0" d="M9.93,19.19H8.78c-0.4,0-0.72-0.32-0.72-0.72v-6.63c0-0.4,0.32-0.72,0.72-0.72h1.15
					c0.4,0,0.72,0.32,0.72,0.72v6.63C10.65,18.86,10.32,19.19,9.93,19.19z M9.06,18.19h0.59v-6.07H9.06V18.19z"/>
			</g>
			<g>
				<path class="st0" d="M15.56,19.19h-1.15c-0.4,0-0.72-0.32-0.72-0.72v-6.63c0-0.4,0.32-0.72,0.72-0.72h1.15
					c0.4,0,0.72,0.32,0.72,0.72v6.63C16.28,18.86,15.96,19.19,15.56,19.19z M14.69,18.19h0.59v-6.07h-0.59V18.19z"/>
			</g>
			<g>
				<path class="st0" d="M21.2,19.19h-1.15c-0.4,0-0.72-0.32-0.72-0.72v-6.63c0-0.4,0.32-0.72,0.72-0.72h1.15
					c0.4,0,0.72,0.32,0.72,0.72v6.63C21.92,18.86,21.6,19.19,21.2,19.19z M20.33,18.19h0.59v-6.07h-0.59V18.19z"/>
			</g>
		</g>
		<g>
			<path class="st0" d="M22.72,22.89H7.26c-0.37,0-0.68-0.3-0.68-0.68v-1.12c0-0.37,0.3-0.68,0.68-0.68h15.47
				c0.37,0,0.68,0.3,0.68,0.68v1.12C23.4,22.58,23.1,22.89,22.72,22.89z M7.58,21.89H22.4v-0.48H7.58V21.89z"/>
		</g>
	</g>
	<g>
		<g>
			<path class="st0" d="M17.86,35.6H6.62c-0.37,0-0.69-0.24-0.79-0.6c-0.1-0.36,0.05-0.73,0.38-0.92l5.62-3.27
				c0.25-0.15,0.57-0.15,0.82,0l5.62,3.27c0.32,0.19,0.47,0.56,0.38,0.92C18.55,35.36,18.24,35.6,17.86,35.6z M7.31,34.6h9.87
				l-4.93-2.87L7.31,34.6z M12.15,31.68L12.15,31.68L12.15,31.68z"/>
		</g>
		<g>
			<g>
				<path class="st0" d="M8.83,42.68H7.68c-0.4,0-0.72-0.32-0.72-0.72v-5.43c0-0.4,0.32-0.72,0.72-0.72h1.15
					c0.4,0,0.72,0.32,0.72,0.72v5.43C9.55,42.36,9.23,42.68,8.83,42.68z M7.96,41.68h0.59v-4.87H7.96V41.68z"/>
			</g>
			<g>
				<path class="st0" d="M16.8,42.68h-1.15c-0.4,0-0.72-0.32-0.72-0.72v-5.43c0-0.4,0.32-0.72,0.72-0.72h1.15
					c0.4,0,0.72,0.32,0.72,0.72v5.43C17.52,42.36,17.2,42.68,16.8,42.68z M15.93,41.68h0.59v-4.87h-0.59V41.68z"/>
			</g>
		</g>
		<g>
			<path class="st0" d="M18.19,45.38H6.3c-0.36,0-0.66-0.29-0.66-0.66v-1.16c0-0.36,0.29-0.66,0.66-0.66h11.89
				c0.36,0,0.66,0.29,0.66,0.66v1.16C18.84,45.09,18.55,45.38,18.19,45.38z M6.64,44.38h11.2V43.9H6.64V44.38z"/>
		</g>
	</g>
	<g>
		<g>
			<path class="st0" d="M41.38,25.35H30.14c-0.37,0-0.69-0.24-0.79-0.6s0.05-0.73,0.38-0.92l5.62-3.27c0.25-0.15,0.57-0.15,0.82,0
				l5.62,3.27c0.32,0.19,0.47,0.56,0.38,0.92C42.07,25.11,41.75,25.35,41.38,25.35z M30.82,24.35h9.87l-4.94-2.87L30.82,24.35z
				 M35.66,21.42L35.66,21.42L35.66,21.42z"/>
		</g>
		<g>
			<g>
				<path class="st0" d="M32.34,32.43H31.2c-0.4,0-0.72-0.32-0.72-0.72v-5.43c0-0.4,0.32-0.72,0.72-0.72h1.15
					c0.4,0,0.72,0.32,0.72,0.72v5.43C33.07,32.1,32.74,32.43,32.34,32.43z M31.48,31.43h0.59v-4.87h-0.59V31.43z"/>
			</g>
			<g>
				<path class="st0" d="M40.32,32.43h-1.15c-0.4,0-0.72-0.32-0.72-0.72v-5.43c0-0.4,0.32-0.72,0.72-0.72h1.15
					c0.4,0,0.72,0.32,0.72,0.72v5.43C41.04,32.1,40.71,32.43,40.32,32.43z M39.45,31.43h0.59v-4.87h-0.59V31.43z"/>
			</g>
		</g>
		<g>
			<path class="st0" d="M41.7,35.13H29.81c-0.36,0-0.66-0.29-0.66-0.66v-1.16c0-0.36,0.29-0.66,0.66-0.66H41.7
				c0.36,0,0.66,0.29,0.66,0.66v1.16C42.36,34.83,42.06,35.13,41.7,35.13z M30.16,34.13h11.2v-0.48h-11.2V34.13z"/>
		</g>
	</g>
	<g>
		<path class="st0" d="M35.76,19.41c-0.28,0-0.5-0.22-0.5-0.5v-1.99c0-2.17-1.76-3.93-3.93-3.93h-8.04c-0.28,0-0.5-0.22-0.5-0.5
			s0.22-0.5,0.5-0.5h8.04c2.72,0,4.93,2.21,4.93,4.93v1.99C36.26,19.19,36.03,19.41,35.76,19.41z"/>
	</g>
	<g>
		<path class="st0" d="M30.74,41.24H19.83c-0.28,0-0.5-0.22-0.5-0.5s0.22-0.5,0.5-0.5h10.91c2.17,0,3.93-1.76,3.93-3.93
			c0-0.28,0.22-0.5,0.5-0.5s0.5,0.22,0.5,0.5C35.67,39.03,33.46,41.24,30.74,41.24z"/>
	</g>
</g>
</svg>
