<?xml version="1.0" encoding="utf-8"?>
<!-- Generator: Adobe Illustrator 23.0.1, SVG Export Plug-In . SVG Version: 6.00 Build 0)  -->
<svg version="1.1" id="Layer_1" xmlns="http://www.w3.org/2000/svg" xmlns:xlink="http://www.w3.org/1999/xlink" x="0px" y="0px"
	 viewBox="0 0 42 42" style="enable-background:new 0 0 42 42;" xml:space="preserve">
<style type="text/css">
	<!-- .st0{fill:#606060;} -->
</style>
<g>
	<g>
		<g>
			<path class="st0" d="M10.99,35.84H8.07c-2.11,0-3.83-1.72-3.83-3.83V9.99c0-2.11,1.72-3.83,3.83-3.83h2.92v1H8.07
				c-1.56,0-2.83,1.27-2.83,2.83v22.03c0,1.56,1.27,2.83,2.83,2.83h2.92V35.84z"/>
		</g>
		<g>
			<path class="st0" d="M35.93,35.84h-2.92v-1h2.92c1.56,0,2.83-1.27,2.83-2.83V9.99c0-1.56-1.27-2.83-2.83-2.83h-2.92v-1h2.92
				c2.11,0,3.83,1.72,3.83,3.83v22.03C39.75,34.12,38.04,35.84,35.93,35.84z"/>
		</g>
	</g>
	<g>
		<path class="st0" d="M36.62,25.49H7.38v-8.97h29.24V25.49z M8.38,24.49h27.24v-6.97H8.38V24.49z"/>
	</g>
	<g>
		<path class="st0" d="M17.29,21.54L16.8,23h-0.62l1.58-4.66h0.73L20.08,23h-0.64l-0.5-1.47h-1.65V21.54z M18.81,21.07l-0.46-1.34
			c-0.1-0.3-0.17-0.58-0.24-0.85H18.1c-0.07,0.28-0.15,0.56-0.24,0.84l-0.46,1.35H18.81z"/>
		<path class="st0" d="M20.76,18.41c0.26-0.06,0.68-0.1,1.1-0.1c0.6,0,0.99,0.1,1.28,0.34c0.24,0.18,0.39,0.46,0.39,0.82
			c0,0.45-0.3,0.84-0.79,1.02v0.01c0.44,0.11,0.96,0.48,0.96,1.17c0,0.4-0.16,0.71-0.39,0.93c-0.33,0.3-0.85,0.43-1.61,0.43
			c-0.41,0-0.73-0.03-0.93-0.05L20.76,18.41L20.76,18.41z M21.36,20.32h0.55c0.64,0,1.01-0.33,1.01-0.78c0-0.55-0.41-0.76-1.02-0.76
			c-0.28,0-0.44,0.02-0.53,0.04L21.36,20.32L21.36,20.32z M21.36,22.55c0.12,0.02,0.29,0.03,0.5,0.03c0.62,0,1.2-0.23,1.2-0.91
			c0-0.64-0.55-0.9-1.2-0.9h-0.5V22.55z"/>
		<path class="st0" d="M27.77,22.85c-0.22,0.11-0.66,0.22-1.23,0.22c-1.31,0-2.3-0.83-2.3-2.36c0-1.46,0.99-2.45,2.43-2.45
			c0.58,0,0.95,0.12,1.11,0.21l-0.15,0.49c-0.23-0.11-0.55-0.19-0.94-0.19c-1.09,0-1.82,0.7-1.82,1.92c0,1.14,0.66,1.87,1.79,1.87
			c0.37,0,0.74-0.08,0.98-0.19L27.77,22.85z"/>
	</g>
</g>
</svg>
