<?xml version="1.0" encoding="utf-8"?>
<!-- Generator: Adobe Illustrator 23.0.1, SVG Export Plug-In . SVG Version: 6.00 Build 0)  -->
<svg version="1.1" id="Layer_1" xmlns="http://www.w3.org/2000/svg" xmlns:xlink="http://www.w3.org/1999/xlink" x="0px" y="0px"
	 viewBox="0 0 48 48" style="enable-background:new 0 0 48 48;" xml:space="preserve">
<style type="text/css">
	<!-- .st0{fill:#606060;} -->
</style>
<g>
	<g>
		<path class="st0" d="M12.03,45.92H7.17c-1.23,0-2.22-1-2.22-2.22V3.15c0-1.23,1-2.22,2.22-2.22h18.55c1.23,0,2.22,1,2.22,2.22
			v8.55c0,0.67,0.55,1.22,1.22,1.22h8.55c1.23,0,2.22,1,2.22,2.22v9.21h-1v-9.21c0-0.67-0.55-1.22-1.22-1.22h-8.55
			c-1.23,0-2.22-1-2.22-2.22V3.15c0-0.67-0.55-1.22-1.22-1.22H7.17c-0.67,0-1.22,0.55-1.22,1.22V43.7c0,0.67,0.55,1.22,1.22,1.22
			h4.86C12.03,44.92,12.03,45.92,12.03,45.92z"/>
	</g>
	<g>
		
			<rect x="32.31" y="0.26" transform="matrix(0.7071 -0.7071 0.7071 0.7071 3.9263 25.5551)" class="st0" width="1" height="15.56"/>
	</g>
	<g>
		<g>
			<path class="st0" d="M24.23,44.99h-2.91v-1h1.91V31.52h-2.25c-3.81,0-6.9,3.1-6.9,6.9v4.6c0,0.53,0.43,0.96,0.96,0.96H16v1h-0.95
				c-1.08,0-1.96-0.88-1.96-1.96v-4.6c0-4.36,3.54-7.9,7.9-7.9h3.25v14.47H24.23z"/>
		</g>
		<g>
			<path class="st0" d="M15.34,39.13c-0.28,0-0.5-0.22-0.5-0.5c0-2.93,1.88-5.26,4.9-6.09c0.26-0.07,0.54,0.08,0.61,0.35
				S20.27,33.43,20,33.5c-2.57,0.7-4.16,2.67-4.16,5.13C15.84,38.9,15.61,39.13,15.34,39.13z"/>
		</g>
		<g>
			<path class="st0" d="M40.29,44.99h-1.44v-1h1.44c0.97,0,1.76-0.79,1.76-1.76V29.41c0-0.97-0.79-1.76-1.76-1.76h-14.3
				c-0.97,0-1.76,0.79-1.76,1.76v14.58h9.36v1H23.23V29.41c0-1.52,1.24-2.76,2.76-2.76h14.29c1.52,0,2.76,1.24,2.76,2.76v12.82
				C43.05,43.75,41.81,44.99,40.29,44.99z"/>
		</g>
		<g>
			<path class="st0" d="M36.22,47.08c-1.43,0-2.59-1.16-2.59-2.59s1.16-2.59,2.59-2.59s2.59,1.16,2.59,2.59S37.65,47.08,36.22,47.08
				z M36.22,42.9c-0.88,0-1.59,0.71-1.59,1.59s0.71,1.59,1.59,1.59s1.59-0.71,1.59-1.59S37.1,42.9,36.22,42.9z"/>
		</g>
		<g>
			<path class="st0" d="M18.66,47.08c-1.43,0-2.59-1.16-2.59-2.59s1.16-2.59,2.59-2.59s2.59,1.16,2.59,2.59S20.08,47.08,18.66,47.08
				z M18.66,42.9c-0.88,0-1.59,0.71-1.59,1.59s0.71,1.59,1.59,1.59c0.88,0,1.59-0.71,1.59-1.59S19.53,42.9,18.66,42.9z"/>
		</g>
	</g>
	<g>
		<rect x="8.99" y="7.54" class="st0" width="11.75" height="1"/>
	</g>
	<g>
		<rect x="8.99" y="13.1" class="st0" width="6.94" height="1"/>
	</g>
	<g>
		<rect x="8.99" y="18.66" class="st0" width="12.69" height="1"/>
	</g>
	<g>
		<rect x="8.99" y="24.22" class="st0" width="7.49" height="1"/>
	</g>
</g>
</svg>
