<?xml version="1.0" encoding="utf-8"?>
<!-- Generator: Adobe Illustrator 23.0.1, SVG Export Plug-In . SVG Version: 6.00 Build 0)  -->
<svg version="1.1" id="Layer_1" xmlns="http://www.w3.org/2000/svg" xmlns:xlink="http://www.w3.org/1999/xlink" x="0px" y="0px"
	 viewBox="0 0 48 48" style="enable-background:new 0 0 48 48;" xml:space="preserve">
<style type="text/css">
	.st0{fill:#606060;}
</style>
<g>
	<g>
		<g>
			<path class="st0" d="M18.19,46.11H8.34c-1.23,0-2.22-1-2.22-2.22V3.33c0-1.23,1-2.22,2.22-2.22h18.55c1.23,0,2.22,1,2.22,2.22
				v8.55c0,0.67,0.55,1.22,1.22,1.22h8.55c1.23,0,2.22,1,2.22,2.22v9.21h-1v-9.21c0-0.67-0.55-1.22-1.22-1.22h-8.55
				c-1.23,0-2.22-1-2.22-2.22V3.33c0-0.67-0.55-1.22-1.22-1.22H8.34c-0.67,0-1.22,0.55-1.22,1.22v40.55c0,0.67,0.55,1.22,1.22,1.22
				h9.86v1.01H18.19z"/>
		</g>
		<g>
			
				<rect x="33.47" y="0.44" transform="matrix(0.7071 -0.7071 0.7071 0.7071 4.1349 26.4277)" class="st0" width="1" height="15.56"/>
		</g>
		<g>
			<rect x="10.16" y="7.72" class="st0" width="16.75" height="1"/>
		</g>
		<g>
			<rect x="10.16" y="13.28" class="st0" width="16.94" height="1"/>
		</g>
		<g>
			<rect x="10.16" y="18.84" class="st0" width="12.69" height="1"/>
		</g>
		<g>
			<rect x="10.16" y="24.4" class="st0" width="7.49" height="1"/>
		</g>
	</g>
	<g>
		<g>
			<g>
				<path class="st0" d="M40.23,28.72H21.31c-0.28,0-0.5-0.22-0.5-0.5v-2.49c0-0.28,0.22-0.5,0.5-0.5h18.92c0.28,0,0.5,0.22,0.5,0.5
					v2.49C40.73,28.5,40.5,28.72,40.23,28.72z M21.81,27.72h17.92v-1.49H21.81V27.72z"/>
			</g>
			<g>
				<path class="st0" d="M41.39,39.19H20.15c-0.28,0-0.5-0.22-0.5-0.5v-2.78c0-0.28,0.22-0.5,0.5-0.5h21.24c0.28,0,0.5,0.22,0.5,0.5
					v2.78C41.89,38.96,41.66,39.19,41.39,39.19z M20.65,38.19h20.24v-1.78H20.65V38.19z"/>
			</g>
			<g>
				<path class="st0" d="M41.39,36.41H20.15c-0.15,0-0.29-0.06-0.38-0.18c-0.1-0.11-0.14-0.26-0.11-0.4l0.97-6.17
					c0.04-0.24,0.25-0.42,0.49-0.42h19.29c0.25,0,0.46,0.18,0.49,0.42l0.97,6.17c0.02,0.14-0.02,0.29-0.11,0.4
					C41.67,36.34,41.53,36.41,41.39,36.41z M20.73,35.41H40.8l-0.81-5.17H21.55L20.73,35.41z"/>
			</g>
		</g>
		<g>
			<g>
				<path class="st0" d="M33.11,46.89h-11.8c-0.28,0-0.5-0.22-0.5-0.5v-7.6h1v7.1h10.8v-7.1h1v7.6
					C33.61,46.67,33.38,46.89,33.11,46.89z"/>
			</g>
			<g>
				<path class="st0" d="M40.23,46.89h-2.5c-0.28,0-0.5-0.22-0.5-0.5v-7.71h1v7.21h1.5v-7.21h1v7.71
					C40.73,46.67,40.5,46.89,40.23,46.89z"/>
			</g>
			<g>
				<path class="st0" d="M30.77,44.39h-7.28c-0.28,0-0.5-0.22-0.5-0.5v-5.1h1v4.6h6.28v-4.6h1v5.1
					C31.27,44.17,31.04,44.39,30.77,44.39z"/>
			</g>
		</g>
	</g>
</g>
</svg>
