<svg xmlns="http://www.w3.org/2000/svg" width="34.469" height="47.886" viewBox="0 0 34.469 47.886">
  <g id="Symbol_55_3" data-name="Symbol 55 – 3" transform="translate(-18456.502 345)">
    <g id="Group_5355" data-name="Group 5355" transform="translate(17187.988 -1222.034)">
      <g id="Group_5354" data-name="Group 5354">
        <path id="Path_1151" data-name="Path 1151" d="M1282.189,885.214" fill="none" stroke="#fff" stroke-miterlimit="10" stroke-width="1"/>
        <path id="Path_1152" data-name="Path 1152" d="M1282.259,877.034" fill="none" stroke="#fff" stroke-miterlimit="10" stroke-width="1"/>
      </g>
      <circle id="Ellipse_174" data-name="Ellipse 174" cx="7.921" cy="7.921" r="7.921" transform="translate(1274.269 880.898)" fill="none" stroke="#fff" stroke-miterlimit="10" stroke-width="1"/>
      <path id="Path_1153" data-name="Path 1153" d="M1290.61,899.222a20.005,20.005,0,0,0-20.4,2.383,3.132,3.132,0,0,0-1.2,2.485V914.9a2.31,2.31,0,0,0,2.31,2.309h9.175" fill="none" stroke="#fff" stroke-linecap="round" stroke-miterlimit="10" stroke-width="1"/>
    </g>
    <g id="Group_5356" data-name="Group 5356" transform="translate(17187.988 -1222.034)">
      <path id="Path_1154" data-name="Path 1154" d="M1281.071,912.414l10.705-8.719,10.705,8.719" fill="none" stroke="#fff" stroke-linecap="round" stroke-miterlimit="10" stroke-width="1"/>
      <path id="Path_1155" data-name="Path 1155" d="M1281.071,915.557l10.705,8.719,10.705-8.719" fill="none" stroke="#fff" stroke-linecap="round" stroke-miterlimit="10" stroke-width="1"/>
      <path id="Path_1156" data-name="Path 1156" d="M1286.854,907.707v2.978a1.258,1.258,0,0,0,1.258,1.258h7.329a1.258,1.258,0,0,0,1.258-1.258v-2.978" fill="none" stroke="#fff" stroke-linecap="round" stroke-miterlimit="10" stroke-width="1"/>
      <path id="Path_1157" data-name="Path 1157" d="M1296.7,919.916v-2.978a1.258,1.258,0,0,0-1.258-1.258h-7.329a1.258,1.258,0,0,0-1.258,1.258v2.978" fill="none" stroke="#fff" stroke-linecap="round" stroke-miterlimit="10" stroke-width="1"/>
    </g>
  </g>
</svg>
