<?xml version="1.0" encoding="utf-8"?>
<!-- Generator: Adobe Illustrator 23.0.1, SVG Export Plug-In . SVG Version: 6.00 Build 0)  -->
<svg version="1.1" id="Layer_1" xmlns="http://www.w3.org/2000/svg" xmlns:xlink="http://www.w3.org/1999/xlink" x="0px" y="0px"
	 viewBox="0 0 48 48" style="enable-background:new 0 0 48 48;" xml:space="preserve">
<style type="text/css">
	.st0{fill:#606060;}
</style>
<g>
	<path class="st0" d="M40.55,27.88c-3.49-2.51-7.54-3.94-11.81-4.2c4.34-0.76,7.64-4.54,7.64-9.09c0-5.1-4.14-9.24-9.24-9.24
		c-5.1,0-9.24,4.14-9.24,9.24c0,4.59,3.37,8.39,7.75,9.11c-4.39,0.33-8.52,1.89-12.03,4.6c-0.95,0.74-1.52,1.91-1.52,3.14v11.92
		c0,1.68,1.37,3.05,3.05,3.05h23.98c1.68,0,3.05-1.36,3.05-3.04V31.1C42.18,29.82,41.57,28.62,40.55,27.88z M18.9,14.59
		c0-4.54,3.7-8.24,8.24-8.24c4.54,0,8.24,3.7,8.24,8.24c0,4.54-3.7,8.24-8.24,8.24C22.6,22.83,18.9,19.13,18.9,14.59z M41.18,43.37
		c0,1.13-0.92,2.05-2.05,2.05H15.15c-1.13,0-2.05-0.92-2.05-2.05V31.44c0-0.93,0.42-1.8,1.13-2.35c3.8-2.93,8.34-4.47,13.14-4.47
		c4.56,0,8.91,1.41,12.6,4.07c0.76,0.55,1.21,1.45,1.21,2.41V43.37z"/>
	<path class="st0" d="M8.87,43.58c-1.13,0-2.05-0.92-2.05-2.05V29.6c0-0.93,0.42-1.8,1.13-2.35c2.65-2.04,5.77-3.45,9.04-4.08
		c0.09-0.02,0.16-0.06,0.22-0.12c0.18-0.01,0.35-0.11,0.43-0.29c0.11-0.25,0-0.55-0.25-0.66c-2.95-1.32-4.86-4.27-4.86-7.51
		c0-4.14,3.1-7.65,7.2-8.17C20,6.38,20.2,6.13,20.16,5.85c-0.04-0.27-0.29-0.46-0.56-0.43c-4.6,0.59-8.07,4.52-8.07,9.17
		c0,3.19,1.65,6.13,4.3,7.81c-3.07,0.74-5.98,2.13-8.49,4.05c-0.95,0.74-1.52,1.91-1.52,3.14v11.93c0,1.68,1.37,3.05,3.05,3.05
		c0.28,0,0.5-0.21,0.5-0.49C9.37,43.8,9.15,43.58,8.87,43.58z"/>
</g>
</svg>
