<?xml version="1.0" encoding="utf-8"?>
<!-- Generator: Adobe Illustrator 23.0.1, SVG Export Plug-In . SVG Version: 6.00 Build 0)  -->
<svg version="1.1" id="Layer_1" xmlns="http://www.w3.org/2000/svg" xmlns:xlink="http://www.w3.org/1999/xlink" x="0px" y="0px"
	 viewBox="0 0 48 48" style="enable-background:new 0 0 48 48;" xml:space="preserve">
<style type="text/css">
	.st0{fill:#606060;}
</style>
<g>
	<path class="st0" d="M18.88,38.62H9.71c-1,0-1.81-0.81-1.81-1.81V26c0-0.82,0.38-1.6,1.01-2.09c3.43-2.64,7.54-4.04,11.88-4.04
		c2.79,0,5.48,0.58,8.01,1.72c0.25,0.12,0.55,0,0.66-0.25c0.11-0.25,0-0.55-0.25-0.66c-2.16-0.97-4.44-1.55-6.79-1.73
		c3.76-0.84,6.58-4.2,6.58-8.21c0-4.64-3.78-8.42-8.42-8.42s-8.42,3.78-8.42,8.42c0,4.05,2.88,7.44,6.69,8.24
		C15,19.32,11.39,20.74,8.3,23.12C7.42,23.79,6.9,24.87,6.9,26v10.81c0,1.55,1.26,2.81,2.81,2.81h9.17c0.28,0,0.5-0.22,0.5-0.5
		S19.16,38.62,18.88,38.62z M13.16,10.73c0-4.09,3.33-7.42,7.42-7.42S28,6.64,28,10.73s-3.33,7.42-7.42,7.42
		S13.16,14.82,13.16,10.73z"/>
	<path class="st0" d="M41.61,32.81l-3.01,0.03c-0.2-0.74-0.49-1.46-0.88-2.09l2.15-2.15c0.38-0.38,0.38-0.99,0-1.37l-1.85-1.85
		c-0.38-0.38-0.99-0.38-1.37,0l-2.11,2.14c-0.67-0.39-1.38-0.68-2.1-0.85v-3.04c0-0.54-0.44-0.97-0.97-0.97h-2.61
		c-0.54,0-0.97,0.44-0.97,0.97l0.03,3.01c-0.74,0.2-1.46,0.49-2.09,0.88l-2.15-2.15c-0.38-0.38-0.99-0.38-1.37,0l-1.85,1.85
		c-0.38,0.38-0.38,0.99,0,1.37l2.14,2.11c-0.39,0.67-0.68,1.38-0.85,2.1h-3.04c-0.54,0-0.97,0.44-0.97,0.97v2.61
		c0,0.54,0.44,0.97,0.97,0.97l3.01-0.03c0.2,0.74,0.49,1.46,0.88,2.09l-2.15,2.15c-0.38,0.38-0.38,0.99,0,1.37l1.85,1.85
		c0.38,0.38,0.99,0.38,1.37,0l2.11-2.14c0.67,0.39,1.38,0.68,2.1,0.85v3.04c0,0.54,0.44,0.97,0.97,0.97h2.61
		c0.54,0,0.97-0.44,0.97-0.97l-0.03-3.01c0.74-0.2,1.46-0.49,2.09-0.88l2.15,2.15c0.38,0.38,1,0.38,1.37,0l1.85-1.85
		c0.38-0.38,0.38-0.99,0-1.37l-2.14-2.11c0.39-0.67,0.68-1.38,0.85-2.1h3.04c0.54,0,0.97-0.44,0.97-0.97v-2.61
		C42.59,33.25,42.15,32.81,41.61,32.81z M38.58,36.37c-0.44,0-0.82,0.29-0.94,0.72c-0.17,0.66-0.44,1.29-0.78,1.88
		c-0.22,0.38-0.16,0.86,0.15,1.17l2.15,2.11l-1.81,1.85l-2.15-2.15c-0.31-0.31-0.79-0.37-1.17-0.15c-0.59,0.34-1.22,0.6-1.88,0.78
		c-0.42,0.11-0.72,0.5-0.72,0.94l0.03,3.01l-2.59,0.03V43.5c0-0.44-0.29-0.82-0.72-0.94c-0.66-0.17-1.29-0.44-1.88-0.78
		c-0.15-0.09-0.32-0.13-0.48-0.13c-0.25,0-0.5,0.1-0.69,0.28l-2.11,2.15l-1.85-1.81l2.15-2.15c0.31-0.31,0.37-0.79,0.15-1.17
		c-0.34-0.59-0.6-1.22-0.78-1.88c-0.11-0.42-0.5-0.72-0.94-0.72l-3.01,0.03l-0.03-2.59h3.04c0.44,0,0.82-0.29,0.94-0.72
		c0.17-0.66,0.44-1.29,0.78-1.88c0.22-0.38,0.16-0.86-0.15-1.17l-2.15-2.11l1.81-1.85l2.15,2.15c0.31,0.31,0.79,0.38,1.17,0.15
		c0.59-0.34,1.22-0.6,1.88-0.78c0.42-0.11,0.72-0.5,0.72-0.94l-0.03-3.01l2.59-0.03v3.04c0,0.44,0.29,0.82,0.72,0.94
		c0.66,0.17,1.29,0.44,1.88,0.78c0.38,0.22,0.86,0.16,1.17-0.15l2.11-2.15l1.85,1.81l-2.15,2.15c-0.31,0.31-0.37,0.79-0.15,1.17
		c0.34,0.59,0.61,1.23,0.78,1.88c0.11,0.42,0.5,0.72,0.94,0.72h3.01l0.03,2.56H38.58z"/>
	<path class="st0" d="M30.16,29.92c-2.85,0-5.17,2.32-5.17,5.17s2.32,5.17,5.17,5.17s5.17-2.32,5.17-5.17S33.01,29.92,30.16,29.92z
		 M30.16,39.25c-2.3,0-4.17-1.87-4.17-4.17s1.87-4.17,4.17-4.17s4.17,1.87,4.17,4.17S32.46,39.25,30.16,39.25z"/>
</g>
</svg>
