<?xml version="1.0" encoding="utf-8"?>
<!-- Generator: Adobe Illustrator 23.0.1, SVG Export Plug-In . SVG Version: 6.00 Build 0)  -->
<svg version="1.1" id="Layer_1" xmlns="http://www.w3.org/2000/svg" xmlns:xlink="http://www.w3.org/1999/xlink" x="0px" y="0px"
	 viewBox="0 0 48 48" style="enable-background:new 0 0 48 48;" xml:space="preserve">
<style type="text/css">
	<!-- .st0{fill:#606060;} -->
</style>
<g>
	<path class="st0" d="M42.33,6.8c0-1.26-1.02-2.29-2.29-2.29H7.96c-1.26,0-2.29,1.02-2.29,2.29v3.99H7.4v29.39
		c0,1.83,1.49,3.32,3.32,3.32h26.58c1.83,0,3.32-1.49,3.32-3.32V10.78h1.73V6.8z M39.6,40.18c0,1.28-1.04,2.32-2.32,2.32H10.71
		c-1.28,0-2.32-1.04-2.32-2.32V10.78H39.6V40.18z M41.33,9.78H6.67V6.8c0-0.71,0.58-1.29,1.29-1.29h32.09
		c0.71,0,1.29,0.58,1.29,1.29V9.78z"/>
	<path class="st0" d="M18.15,20.66h11.7c0.33,0,0.59-0.27,0.59-0.59v-1.92c0-0.33-0.27-0.59-0.59-0.59h-11.7
		c-0.33,0-0.59,0.27-0.59,0.59v1.92C17.56,20.4,17.82,20.66,18.15,20.66z M18.56,18.56h10.88v1.11H18.56V18.56z"/>
</g>
</svg>
