<?xml version="1.0" encoding="utf-8"?>
<!-- Generator: Adobe Illustrator 23.0.1, SVG Export Plug-In . SVG Version: 6.00 Build 0)  -->
<svg version="1.1" id="Layer_1" xmlns="http://www.w3.org/2000/svg" xmlns:xlink="http://www.w3.org/1999/xlink" x="0px" y="0px"
	 viewBox="0 0 48 48" style="enable-background:new 0 0 48 48;" xml:space="preserve">
<style type="text/css">
	<!-- .st0{fill:#606060;} -->
</style>
<g>
	<path class="st0" d="M30.77,20.4l-9.97,7.24c-0.39,0.29-0.55,0.77-0.4,1.23c0.15,0.46,0.56,0.76,1.05,0.76h19.93
		c0.49,0,0.9-0.3,1.05-0.76c0.15-0.46-0.01-0.95-0.4-1.23l-9.97-7.24C31.68,20.12,31.16,20.12,30.77,20.4z M41.51,28.57
		c-0.02,0.06-0.06,0.09-0.12,0.09H21.46c-0.06,0-0.1-0.03-0.12-0.09c-0.02-0.06,0-0.1,0.05-0.14l9.97-7.24h0
		c0.02-0.02,0.05-0.02,0.07-0.02c0.03,0,0.05,0.01,0.07,0.02l9.97,7.24C41.51,28.47,41.53,28.52,41.51,28.57z"/>
	<path class="st0" d="M23.06,30.13c-0.43,0-0.79,0.35-0.79,0.79v8.92c0,0.43,0.35,0.79,0.79,0.79h1.54c0.43,0,0.79-0.35,0.79-0.79
		v-8.92c0-0.43-0.35-0.79-0.79-0.79H23.06z M24.41,39.65h-1.16v-8.54h1.16V39.65z"/>
	<path class="st0" d="M32.98,34.91v-3.99c0-0.43-0.35-0.79-0.79-0.79h-1.54c-0.43,0-0.79,0.35-0.79,0.79v3.99h0.98v-3.8H32v3.8
		H32.98z"/>
	<path class="st0" d="M40.86,34.91v-3.99c0-0.43-0.35-0.79-0.79-0.79h-1.54c-0.43,0-0.79,0.35-0.79,0.79v3.99h0.98v-3.8h1.16v3.8
		H40.86z"/>
	<path class="st0" d="M20.28,42.19v1.51c0,0.4,0.33,0.73,0.73,0.73h4.9v-0.98h-4.65v-1.01h4.65v-0.98h-4.9
		C20.61,41.46,20.28,41.79,20.28,42.19z"/>
	<path class="st0" d="M28.61,42.89c0,0.27,0.22,0.49,0.49,0.49c0.27,0,0.49-0.22,0.49-0.49c0-1.21,0.79-2.18,2.06-2.52
		c0.26-0.07,0.41-0.34,0.34-0.6c-0.07-0.26-0.34-0.41-0.6-0.34C29.7,39.89,28.61,41.25,28.61,42.89z"/>
	<path class="st0" d="M41.68,36.27h-7.64c-0.94,0-1.7,0.76-1.7,1.7v0.37h-0.98c-2.45,0-4.44,1.99-4.44,4.44v2.46
		c0,0.7,0.57,1.27,1.27,1.27h0.41c0.21,0.65,0.81,1.12,1.52,1.12s1.31-0.47,1.52-1.12h0.7h0.98h4.66c0.21,0.65,0.81,1.12,1.52,1.12
		c0.71,0,1.31-0.47,1.52-1.12h0.65c0.94,0,1.7-0.76,1.7-1.7v-6.85C43.38,37.03,42.62,36.27,41.68,36.27z M30.12,46.65
		c-0.35,0-0.63-0.28-0.63-0.63c0-0.35,0.28-0.63,0.63-0.63s0.63,0.28,0.63,0.63C30.75,46.37,30.47,46.65,30.12,46.65z M32.34,45.53
		h-0.7c-0.21-0.65-0.81-1.12-1.52-1.12s-1.31,0.47-1.52,1.12h-0.41c-0.16,0-0.29-0.13-0.29-0.29v-2.46c0-1.91,1.55-3.47,3.47-3.47
		h0.98V45.53z M39.51,46.65c-0.35,0-0.63-0.28-0.63-0.63c0-0.35,0.28-0.63,0.63-0.63s0.63,0.28,0.63,0.63
		C40.14,46.37,39.85,46.65,39.51,46.65z M42.4,44.81c0,0.4-0.32,0.72-0.72,0.72h-0.65c-0.21-0.65-0.81-1.12-1.52-1.12
		c-0.71,0-1.31,0.47-1.52,1.12h-4.66v-7.2v-0.37c0-0.4,0.32-0.72,0.72-0.72h7.64c0.4,0,0.72,0.32,0.72,0.72V44.81z"/>
	<path class="st0" d="M21.32,38.15c-0.24-0.13-0.53-0.05-0.67,0.19l-1.72,3.1l-8.77-15.79c-0.65-1.16-1.4-2.26-2.18-3.38
		c-1.56-2.24-2.38-4.86-2.38-7.59c0-3.79,1.62-7.42,4.45-9.95c2.87-2.56,6.57-3.73,10.43-3.3C26.34,2.1,31.23,6.8,32.11,12.62
		c0.2,1.31,0.21,2.62,0.03,3.9c-0.04,0.27,0.15,0.51,0.42,0.55c0.27,0.04,0.52-0.15,0.55-0.42c0.19-1.37,0.18-2.78-0.03-4.19
		C32.12,6.12,26.99,1.18,20.59,0.46C16.45,0,12.48,1.26,9.4,4.01c-3.04,2.71-4.78,6.61-4.78,10.68c0,2.93,0.89,5.74,2.56,8.15
		c0.76,1.1,1.5,2.17,2.12,3.3l9.63,17.33l2.58-4.64C21.64,38.58,21.56,38.28,21.32,38.15z"/>
	<path class="st0" d="M25.42,14.13c0-3.58-2.91-6.49-6.49-6.49s-6.49,2.91-6.49,6.49s2.91,6.49,6.49,6.49S25.42,17.71,25.42,14.13z
		 M18.94,19.64c-3.04,0-5.51-2.47-5.51-5.51s2.47-5.51,5.51-5.51c3.04,0,5.51,2.47,5.51,5.51S21.97,19.64,18.94,19.64z"/>
</g>
</svg>
