<svg xmlns="http://www.w3.org/2000/svg" width="21.333" height="21.333" viewBox="0 0 21.333 21.333">
  <g id="Group_5207" data-name="Group 5207" transform="translate(153 -217)">
    <path id="Path_1117" data-name="Path 1117" d="M10.667,0A10.667,10.667,0,1,1,0,10.667,10.667,10.667,0,0,1,10.667,0Z" transform="translate(-153 217)" fill="#fff"/>
    <g id="Group_5615" data-name="Group 5615" transform="translate(-11198.334 -667.667)">
      <g id="Group_5616" data-name="Group 5616" transform="translate(11048.911 888.207)">
        <path id="Path_1184" data-name="Path 1184" d="M2.878.886,4.55.007a.059.059,0,0,1,.085.062L4.315,1.93a.057.057,0,0,0,.017.051L5.685,3.3a.058.058,0,0,1-.032.1l-1.87.271a.06.06,0,0,0-.044.032L2.9,5.4a.058.058,0,0,1-.1,0L1.963,3.7a.061.061,0,0,0-.044-.032L.049,3.4a.058.058,0,0,1-.032-.1L1.37,1.982a.057.057,0,0,0,.017-.051L1.067.068A.058.058,0,0,1,1.152.007L2.824.886A.056.056,0,0,0,2.878.886Z" transform="matrix(0.799, 0.602, -0.602, 0.799, 2.267, 0)" fill="#f90"/>
      </g>
      <path id="Menu" d="M0,9.474V7.728H9.826V9.474Zm1.1-4V3.729H9.579V5.474Zm3.291-4V-.272h5.19V1.474Z" transform="translate(11052.299 891.272)" fill="#f90"/>
    </g>
  </g>
</svg>
