<?xml version="1.0" encoding="utf-8"?>
<!-- Generator: Adobe Illustrator 23.0.1, SVG Export Plug-In . SVG Version: 6.00 Build 0)  -->
<svg version="1.1" id="Layer_1" xmlns="http://www.w3.org/2000/svg" xmlns:xlink="http://www.w3.org/1999/xlink" x="0px" y="0px"
	 viewBox="0 0 48 48" style="enable-background:new 0 0 48 48;" xml:space="preserve">
<style type="text/css">
	.st0{fill:#FFFFFF;}
</style>
<g>
	<path class="st0" d="M4.82,42.96h4.82V11.15H4.82V42.96z M5.82,12.15h2.82v29.81H5.82V12.15z"/>
	<path class="st0" d="M14.57,42.96h4.82V19.69h-4.82V42.96z M15.57,20.69h2.82v21.27h-2.82V20.69z"/>
	<path class="st0" d="M29.14,42.96V26.35h-4.82v16.61H29.14z M25.32,27.35h2.82v14.61h-2.82V27.35z"/>
	<path class="st0" d="M34.07,42.96h4.82V31.12h-4.82V42.96z M35.07,32.12h2.82v9.84h-2.82V32.12z"/>
	<path class="st0" d="M41.94,12.74l0.09-0.09l-11-11l-0.09,0.09c-0.36-0.73-1.11-1.24-1.98-1.24H13.41c-1.23,0-2.22,1-2.22,2.22
		v5.55c0,0.28,0.22,0.5,0.5,0.5s0.5-0.22,0.5-0.5V2.72c0-0.67,0.55-1.22,1.22-1.22h15.55c0.67,0,1.22,0.55,1.22,1.22v8.55
		c0,1.23,1,2.22,2.22,2.22h8.55c0.67,0,1.22,0.55,1.22,1.22v30.55c0,0.67-0.55,1.22-1.22,1.22H13.41c-0.67,0-1.22-0.55-1.22-1.22
		c0-0.28-0.22-0.5-0.5-0.5s-0.5,0.22-0.5,0.5c0,1.23,1,2.22,2.22,2.22h27.55c1.23,0,2.22-1,2.22-2.22V14.72
		C43.18,13.85,42.68,13.1,41.94,12.74z M31.18,11.28V3.21l9.29,9.29h-8.07C31.73,12.5,31.18,11.95,31.18,11.28z"/>
	<path class="st0" d="M16.98,10.91c-0.99,0-1.79,0.8-1.79,1.79s0.8,1.79,1.79,1.79c0.35,0,0.67-0.1,0.94-0.27l17.05,11.31
		c-0.1,0.22-0.17,0.46-0.17,0.72c0,0.93,0.75,1.68,1.68,1.68c0.93,0,1.68-0.75,1.68-1.68s-0.75-1.68-1.68-1.68
		c-0.3,0-0.57,0.08-0.82,0.22L18.59,13.47c0.11-0.23,0.18-0.49,0.18-0.77C18.77,11.71,17.97,10.91,16.98,10.91z M16.18,12.7
		c0-0.44,0.36-0.79,0.79-0.79c0.44,0,0.79,0.36,0.79,0.79c0,0.44-0.36,0.79-0.79,0.79C16.54,13.49,16.18,13.14,16.18,12.7z
		 M36.48,25.57c0.37,0,0.68,0.3,0.68,0.68s-0.3,0.68-0.68,0.68c-0.37,0-0.68-0.3-0.68-0.68S36.11,25.57,36.48,25.57z"/>
</g>
</svg>
