<?xml version="1.0" encoding="utf-8"?>
<!-- Generator: Adobe Illustrator 23.0.1, SVG Export Plug-In . SVG Version: 6.00 Build 0)  -->
<svg version="1.1" id="Layer_1" xmlns="http://www.w3.org/2000/svg" xmlns:xlink="http://www.w3.org/1999/xlink" x="0px" y="0px"
	 viewBox="0 0 48 48" style="enable-background:new 0 0 48 48;" xml:space="preserve">
<style type="text/css">
	<!-- .st0{fill:#606060;} -->
</style>
<g>
	<path class="st0" d="M41.8,12.74l0.09-0.09l-11-11L30.8,1.74c-0.36-0.73-1.11-1.24-1.98-1.24H13.26c-1.23,0-2.22,1-2.22,2.22V22.6
		c0,0.28,0.22,0.5,0.5,0.5s0.5-0.22,0.5-0.5V2.72c0-0.67,0.55-1.22,1.22-1.22h15.55c0.67,0,1.22,0.55,1.22,1.22v8.55
		c0,1.23,1,2.22,2.22,2.22h8.55c0.67,0,1.22,0.55,1.22,1.22v30.55c0,0.67-0.55,1.22-1.22,1.22H13.26c-0.67,0-1.22-0.55-1.22-1.22
		v-6.75c0-0.28-0.22-0.5-0.5-0.5s-0.5,0.22-0.5,0.5v6.75c0,1.23,1,2.22,2.22,2.22h27.55c1.23,0,2.22-1,2.22-2.22V14.72
		C43.04,13.85,42.53,13.1,41.8,12.74z M31.04,11.28V3.21l9.29,9.29h-8.07C31.59,12.5,31.04,11.95,31.04,11.28z"/>
	<path class="st0" d="M21.14,23.92c0-1.13-0.91-2.04-2.04-2.04s-2.04,0.91-2.04,2.04c0,1.13,0.91,2.04,2.04,2.04
		c0.27,0,0.53-0.06,0.77-0.15l-0.22,0.13l7.42,11.92l0.32-0.2c-0.37,0.35-0.6,0.84-0.6,1.38c0,1.05,0.85,1.91,1.91,1.91
		c1.05,0,1.91-0.85,1.91-1.91c0-0.47-0.18-0.9-0.46-1.23l6.77-7.76c0.35,0.32,0.81,0.51,1.32,0.51c1.09,0,1.97-0.88,1.97-1.97
		c0-1.09-0.88-1.97-1.97-1.97c-1.09,0-1.97,0.88-1.97,1.97c0,0.36,0.1,0.7,0.28,0.99l-0.31-0.27l-6.86,7.86l0.25,0.22
		c-0.28-0.16-0.59-0.25-0.93-0.25c-0.28,0-0.55,0.07-0.79,0.18l-7.41-11.9l-0.08,0.05C20.85,25.09,21.14,24.54,21.14,23.92z
		 M38.23,27.62c0.54,0,0.97,0.44,0.97,0.97c0,0.54-0.44,0.97-0.97,0.97s-0.97-0.44-0.97-0.97C37.26,28.05,37.7,27.62,38.23,27.62z
		 M28.7,38.14c0.5,0,0.91,0.41,0.91,0.91s-0.41,0.91-0.91,0.91s-0.91-0.41-0.91-0.91S28.2,38.14,28.7,38.14z M19.1,24.96
		c-0.57,0-1.04-0.47-1.04-1.04s0.47-1.04,1.04-1.04s1.04,0.47,1.04,1.04S19.67,24.96,19.1,24.96z"/>
	<path class="st0" d="M9.47,30.97l7.87-5.52l-0.57-0.82L8.9,30.16l0.29,0.41c-0.43-0.56-1.1-0.92-1.86-0.92
		c-1.31,0-2.37,1.06-2.37,2.37s1.06,2.37,2.37,2.37s2.37-1.06,2.37-2.37c0-0.45-0.13-0.87-0.35-1.23L9.47,30.97z M7.33,33.38
		c-0.75,0-1.37-0.61-1.37-1.37c0-0.75,0.61-1.37,1.37-1.37c0.75,0,1.37,0.61,1.37,1.37C8.69,32.76,8.08,33.38,7.33,33.38z"/>
</g>
</svg>
