<?xml version="1.0" encoding="utf-8"?>
<!-- Generator: Adobe Illustrator 23.0.1, SVG Export Plug-In . SVG Version: 6.00 Build 0)  -->
<svg version="1.1" id="Layer_1" xmlns="http://www.w3.org/2000/svg" xmlns:xlink="http://www.w3.org/1999/xlink" x="0px" y="0px"
	 viewBox="0 0 48 48" style="enable-background:new 0 0 48 48;" xml:space="preserve">
<style type="text/css">
	.st0{fill:#FFFFFF;}
</style>
<g>
	<path class="st0" d="M6.33,1.64H34c0.54,0,0.98,0.44,0.98,0.97h0.98c0-1.08-0.88-1.95-1.95-1.95H6.33c-1.08,0-1.95,0.88-1.95,1.95
		v36.17c0,1.08,0.88,1.95,1.95,1.95v-0.98c-0.54,0-0.98-0.44-0.98-0.98V2.61C5.35,2.08,5.79,1.64,6.33,1.64z"/>
	<path class="st0" d="M31.02,42.7H9.47c-0.54,0-0.97-0.44-0.97-0.98V5.56c0-0.54,0.44-0.97,0.97-0.97h17.47
		c0.54,0,0.98,0.44,0.98,0.97v7.27c0,1.08,0.88,1.95,1.95,1.95h7.27c0.54,0,0.97,0.44,0.97,0.98v18.99c0,0.27,0.22,0.49,0.49,0.49
		c0.27,0,0.49-0.22,0.49-0.49V15.76c0-0.84-0.54-1.55-1.28-1.83l-9.05-9.05c-0.28-0.74-0.99-1.28-1.83-1.28H9.47
		c-1.08,0-1.95,0.88-1.95,1.95v36.17c0,1.08,0.88,1.95,1.95,1.95h21.55c0.27,0,0.49-0.22,0.49-0.49
		C31.5,42.92,31.29,42.7,31.02,42.7z M28.89,12.83V6.4l7.41,7.41h-6.43C29.33,13.8,28.89,13.37,28.89,12.83z"/>
	<path class="st0" d="M35.06,17.02c0-0.27-0.22-0.49-0.49-0.49H11.41c-0.27,0-0.49,0.22-0.49,0.49c0,0.27,0.22,0.49,0.49,0.49h23.15
		C34.84,17.51,35.06,17.29,35.06,17.02z"/>
	<path class="st0" d="M24.15,24.14c0-0.27-0.22-0.49-0.49-0.49H11.41c-0.27,0-0.49,0.22-0.49,0.49s0.22,0.49,0.49,0.49h12.25
		C23.93,24.63,24.15,24.41,24.15,24.14z"/>
	<path class="st0" d="M11.41,31.75h7.88c0.27,0,0.49-0.22,0.49-0.49c0-0.27-0.22-0.49-0.49-0.49h-7.88c-0.27,0-0.49,0.22-0.49,0.49
		C10.92,31.53,11.14,31.75,11.41,31.75z"/>
	<path class="st0" d="M11.41,38.88h9.13c0.27,0,0.49-0.22,0.49-0.49s-0.22-0.49-0.49-0.49h-9.13c-0.27,0-0.49,0.22-0.49,0.49
		S11.14,38.88,11.41,38.88z"/>
	<path class="st0" d="M43.06,42.39l-6.7-6.7c1.25-2.97,0.67-6.53-1.74-8.94c-3.18-3.18-8.36-3.18-11.54,0
		c-3.18,3.18-3.18,8.36,0,11.54c1.59,1.59,3.68,2.39,5.77,2.39c1.06,0,2.12-0.21,3.12-0.62l6.72,6.72c0.38,0.38,0.88,0.57,1.38,0.57
		c0.5,0,1-0.19,1.38-0.57l1.62-1.62C43.82,44.39,43.82,43.15,43.06,42.39z M23.76,37.59c-1.36-1.36-2.1-3.16-2.1-5.08
		c0-1.92,0.75-3.72,2.1-5.08s3.16-2.1,5.08-2.1s3.72,0.75,5.08,2.1c1.36,1.36,2.1,3.16,2.1,5.08c0,1.92-0.75,3.72-2.1,5.08
		c-1.36,1.36-3.16,2.1-5.08,2.1S25.11,38.95,23.76,37.59z M42.36,44.46l-1.62,1.62c-0.38,0.38-1,0.38-1.38,0l-6.49-6.49
		c0.62-0.35,1.2-0.78,1.73-1.31c0.51-0.51,0.93-1.08,1.28-1.68l6.48,6.48C42.74,43.46,42.74,44.08,42.36,44.46z"/>
	<path class="st0" d="M25.92,28.91c-0.19-0.19-0.5-0.19-0.69,0c-1.99,1.99-1.99,5.23,0,7.21c0.1,0.1,0.22,0.14,0.35,0.14
		s0.25-0.05,0.35-0.14c0.19-0.19,0.19-0.5,0-0.69c-1.61-1.61-1.61-4.22,0-5.83C26.11,29.41,26.11,29.1,25.92,28.91z"/>
</g>
</svg>
