<?xml version="1.0" encoding="utf-8"?>
<!-- Generator: Adobe Illustrator 23.0.1, SVG Export Plug-In . SVG Version: 6.00 Build 0)  -->
<svg version="1.1" id="Layer_1" xmlns="http://www.w3.org/2000/svg" xmlns:xlink="http://www.w3.org/1999/xlink" x="0px" y="0px"
	 viewBox="0 0 48 48" style="enable-background:new 0 0 48 48;" xml:space="preserve">
<style type="text/css">
	.st0{fill:#FFFFFF;}
</style>
<g>
	<path class="st0" d="M40.28,1H7.72C6.77,1,6,1.77,6,2.72v42.55C6,46.23,6.77,47,7.72,47h20.55c0.77,0,1.41-0.51,1.63-1.2
		L40.8,34.91c0.7-0.22,1.2-0.87,1.2-1.63V2.72C42,1.77,41.23,1,40.28,1z M30,44.29v-7.57c0-0.95,0.77-1.72,1.72-1.72h7.57L30,44.29z
		 M41,33.28c0,0.4-0.32,0.72-0.72,0.72h-8.55c-1.5,0-2.72,1.22-2.72,2.72v8.55c0,0.4-0.32,0.72-0.72,0.72H7.72
		C7.32,46,7,45.68,7,45.28V2.72C7,2.32,7.32,2,7.72,2h32.55C40.68,2,41,2.32,41,2.72V33.28z"/>
	<path class="st0" d="M13.03,7.69c-1.27,0-2.3,1.03-2.3,2.3s1.03,2.3,2.3,2.3s2.3-1.03,2.3-2.3S14.3,7.69,13.03,7.69z M13.03,11.29
		c-0.72,0-1.3-0.58-1.3-1.3s0.58-1.3,1.3-1.3s1.3,0.58,1.3,1.3S13.75,11.29,13.03,11.29z"/>
	<rect x="17.3" y="9.49" class="st0" width="19.47" height="1"/>
	<path class="st0" d="M13.03,17.99c-1.27,0-2.3,1.03-2.3,2.3s1.03,2.3,2.3,2.3s2.3-1.03,2.3-2.3S14.3,17.99,13.03,17.99z
		 M13.03,21.59c-0.72,0-1.3-0.58-1.3-1.3s0.58-1.3,1.3-1.3s1.3,0.58,1.3,1.3S13.75,21.59,13.03,21.59z"/>
	<rect x="17.3" y="19.79" class="st0" width="19.47" height="1"/>
	<path class="st0" d="M13.03,28.28c-1.27,0-2.3,1.03-2.3,2.3s1.03,2.3,2.3,2.3s2.3-1.03,2.3-2.3S14.3,28.28,13.03,28.28z
		 M13.03,31.88c-0.72,0-1.3-0.58-1.3-1.3s0.58-1.3,1.3-1.3s1.3,0.58,1.3,1.3S13.75,31.88,13.03,31.88z"/>
	<rect x="17.3" y="30.08" class="st0" width="19.47" height="1"/>
</g>
</svg>
